<?xml version="1.0" standalone="no"?>
<!DOCTYPE svg PUBLIC "-//W3C//DTD SVG 20010904//EN"
 "http://www.w3.org/TR/2001/REC-SVG-20010904/DTD/svg10.dtd">
<svg version="1.0" xmlns="http://www.w3.org/2000/svg"
 width="293.000000pt" height="293.000000pt" viewBox="0 0 293.000000 293.000000"
 preserveAspectRatio="xMidYMid meet">
<metadata>
Created by potrace 1.14, written by Peter Selinger 2001-2017
</metadata>
<g transform="translate(0.000000,293.000000) scale(0.100000,-0.100000)"
fill="#000000" stroke="none">
<path d="M125 2871 c-49 -22 -91 -69 -105 -119 -8 -26 -10 -425 -8 -1308 l3
-1270 28 -42 c15 -23 45 -51 67 -62 38 -19 57 -20 502 -20 l463 1 -71 37 c-96
51 -157 98 -235 179 -109 113 -177 231 -226 390 -25 80 -27 102 -27 248 1 145
3 168 27 248 35 115 82 207 105 207 9 0 73 -15 142 -34 184 -51 191 -51 224
-25 26 20 28 26 21 63 -16 87 -12 126 18 152 32 28 75 31 117 9 66 -34 68 -94
5 -165 -47 -53 -52 -68 -35 -100 15 -29 38 -38 193 -81 77 -21 142 -40 144
-42 4 -5 -51 -212 -73 -274 -21 -58 -37 -60 -90 -11 -37 34 -53 42 -94 46 -58
5 -90 -11 -120 -61 -66 -108 33 -229 157 -192 83 25 92 5 59 -120 -14 -50 -47
-175 -75 -279 -28 -104 -49 -191 -47 -194 19 -18 39 36 103 275 40 148 73 280
73 294 0 14 -10 36 -21 48 -17 18 -28 22 -55 17 -19 -3 -50 -9 -70 -12 -99
-17 -152 104 -73 170 50 43 90 34 158 -34 16 -17 40 -30 53 -30 45 0 68 40
110 192 21 78 42 146 46 149 9 8 290 -67 309 -82 21 -18 16 -37 -18 -66 -111
-98 -50 -254 93 -241 89 9 131 77 107 176 -12 49 -11 56 5 67 19 15 52 9 236
-43 l105 -30 -2 -78 c-7 -285 -213 -598 -485 -738 l-70 -36 483 0 c543 0 515
-4 575 76 l29 37 3 1276 c1 702 0 1291 -3 1309 -7 40 -68 110 -112 129 -26 10
-156 13 -659 13 l-626 0 66 -57 c69 -59 159 -162 240 -273 41 -56 47 -70 42
-99 -3 -19 -51 -201 -106 -405 -86 -314 -100 -375 -91 -399 14 -35 54 -51 94
-37 55 19 96 13 128 -19 49 -49 35 -126 -28 -156 -46 -22 -76 -13 -124 36 -32
33 -45 40 -71 37 -52 -5 -66 -35 -137 -305 l-11 -42 -68 19 c-37 10 -103 28
-147 40 -119 32 -130 49 -69 111 42 43 55 107 34 159 -36 87 -191 94 -235 10
-17 -33 -20 -97 -5 -136 12 -32 -1 -54 -34 -54 -19 0 -295 69 -305 77 -10 7
99 153 164 218 39 39 137 125 220 190 82 66 171 147 197 179 61 76 141 236
175 351 23 80 26 108 27 250 1 140 -2 169 -22 233 l-23 72 -617 0 c-577 0
-620 -2 -657 -19z"/>
</g>
</svg>
