<svg id="Layer_1" data-name="Layer 1" xmlns="http://www.w3.org/2000/svg" viewBox="0 0 2000 1000"><path d="M690.33,832.67a178.94,178.94,0,0,1-17-19c-11.38-1.54-17-2.39-28.16-4.63a108.43,108.43,0,0,0,13.86,17,190.13,190.13,0,0,1-47.28-19.65C533.33,748.87,584.44,655,635.85,598.23c20.44-9.36,43.82-14.7,66.38-11.57-35.66,84-19.3,182.77,39.09,251.62C724.27,836.9,707.23,835.29,690.33,832.67ZM622.69,743c6.06.32,9.11.48,15.28.87-4.47-20.13-7.45-39.7-6.71-60.41.37-4.71.61-7.05,1.23-11.69l-.9,0c-1.27,4.66-1.84,7-2.86,11.72C624.47,703.32,621.38,722.6,622.69,743Z"/><path d="M825.09,627.25a82.23,82.23,0,0,1,31.69,16.66c11.06,9.42,16.92,23.22,21.1,36.15,6.83,21.13,7.48,45.78,7.29,68.35-.18,21.79-1.75,44.33-6.06,66.14-3.34,16.89-7.87,27.28-15.24,32.62s-17.07,5.79-30.54,3.1c-19.58-3.93-39.23-6.76-59.06-9.06C730,769.52,736,681.39,767.82,605.79,786.77,613.53,805.59,621,825.09,627.25Zm-3,138.93c2.76-5.38,4.06-13.27,4.1-23.55,0-10.52-1.15-19.12-3.83-25.89s-6.58-10.64-11.92-11.84c-3.63-.82-5.44-1.25-9.07-2.12a396.14,396.14,0,0,0-.27,67.93c3.65.76,5.47,1.15,9.13,1.9C815.46,773.68,819.33,771.57,822.09,766.18Z"/><path d="M981.92,596.42c11.83-5.94,23.34-6.73,34.52-.07,16.21,9.63,24.52,27.41,31.69,43.87,12.52,28.75,16.18,62.83,16.67,93.71.5,30.53-2.6,63.3-12,92.87-5.87,18.41-12.44,37.56-26.84,51.36-10.37,9.94-22.14,12.51-35.52,9.63-19.46-4.2-38.8-8.93-58.09-13.85C918,792.1,923.8,704.86,926,622.11,945.1,614.4,963.48,605.64,981.92,596.42Zm20.39,177.52c3.16-8,4.86-19,4.74-32.62-.12-13.94-2-24.82-5.2-32.45s-7.47-10.75-12.67-9.68L980.33,701c1,28.42,1.09,56.84.53,85.28,3.59-.09,5.39-.14,9-.25C995,785.87,999.16,782,1002.31,773.94Z"/><path d="M1080.78,559.87a266,266,0,0,1,52.59-3.17c38.39,113.82,37.81,227,7.53,342.6a362.33,362.33,0,0,1-50.81,1.9C1109.25,785.86,1110.35,673.57,1080.78,559.87Z"/><path d="M1175.5,561.27c16.11,3.3,31.28,7.16,47,11.94,31.27,43.23,56.87,87.92,73.15,138.92h.29c4.11-39.45,3.58-80.38-17.85-115.3a366.42,366.42,0,0,1,41.11,26.87c71.28,64.72,68.75,143.23-2.75,206-12.38,9.29-24.68,18.1-38.29,25.57,25.76-34.11,42.27-68.48,48.87-110.92l-.47,0c-12.55,35.71-30.56,66.47-52.15,97.44-7,2.61-10.48,3.84-17.6,6.17,9.88-33.21,10.34-66.86,7.3-101.09l-.59,0c-4.7,47.17-17.8,90.26-38.6,132.82a331.18,331.18,0,0,1-43.88,12.87C1220.44,781.35,1220.81,670.85,1175.5,561.27Z"/><path d="M1277.5,175c14.85-3.5,23.2-1.1,24.74,6.47,2.76,13.45-4.84,30.44-9.26,43.4-2.28,6.67-4.76,13.61-7.57,20.53a186.28,186.28,0,0,1-8.35,18.26c-2.81,5.21-5.34,8.7-7.82,10.37,5.33,3.65,9.41,10.35,13.19,20.29s6.36,22.19,8.72,35.94c3,17.47,9,40.09,3.44,57-3.48,10.66-11.69,16.25-25.07,15.38-24-3.13-41.27-9.52-61.72-22.51-57.71-59.8-49.61-133.33,14.44-184.26C1239.26,185.75,1258.29,179.43,1277.5,175Zm-40.27,79.33a43.07,43.07,0,0,0,4.22-10c1.16-3.83,1.69-6.86,1.51-9.11s-1.12-3.23-2.9-3c-4.18.52-6.19.8-10.43,1.3a143.4,143.4,0,0,0-8.34,26c4.45-.3,6.5-.49,10.85-.86C1233.89,258.45,1235.56,257,1237.23,254.3Zm2.11,83.39c.51-2.81.28-6.65-.53-11.51a38.41,38.41,0,0,0-3.44-11.54c-1.55-2.93-3.35-4.37-5.47-4.33-4.87.1-7.11.15-12.17,0a149.7,149.7,0,0,0,5.67,31c5.07.37,7.26.42,12.1.5C1237.57,341.89,1238.82,340.51,1239.34,337.69Z"/><path d="M1360.88,161.64c15.93-2.44,31.72-5.13,47.57-8.06-36.24,66.88-39.19,150.52-15.38,221.72-15.48,5.21-31,10.42-46.5,15.43C1313.48,315.22,1319.14,232.49,1360.88,161.64Z"/><path d="M1417,310.9a703.57,703.57,0,0,1,50.4-105.12c-14.23,2-28.46,4.52-42.56,7.34,4.73-22.86,10.2-45.64,20-66.94,31.42-6.75,62.8-13.68,94.29-20.12-2.88,18-5,36.05-6.8,54.16-18.69,34.3-36.81,68.74-53.68,104,16.14-.09,31.44.59,47.51,2.05-.9,26.54-1.45,53-.67,79.58-34.71-8.4-64-8-98.72-.53A267.73,267.73,0,0,1,1417,310.9Z"/><path d="M1574.39,119.39q20.44-3.66,41.06-6.47a1091.3,1091.3,0,0,1,31.29,111.13l.82.32c.92-38.45.14-76.65-1.89-115,14-1.47,28.28-2.44,42.4-2.86,13.15,107.15,5.51,213.23-20.17,318a311.41,311.41,0,0,1-40-15c-3.38-42.61-8.78-84.86-15.5-127.07l-.63-.12c-3.38,38.1-7.49,76.05-12.6,114-13.34-6.41-26.79-12.74-40.44-18.46Q1565.55,248.58,1574.39,119.39Z"/><path d="M1726.05,106.42a449,449,0,0,1,84.74,10.22c10.45,28.26,17.43,57.05,22.37,86.72-14.09-1-28.2-1.87-42.31-2.57,1.05,10.51,1.45,15.87,1.91,26.75,14.09.48,21.1.69,35,1.2a471.68,471.68,0,0,1-3.44,79.41c-14.14.68-21.28,1-35.6,1.17-1.61,11.79-2.57,17.55-4.75,28.95,14.8-.47,29.66-1.47,44.4-2.85a511.59,511.59,0,0,1-29.91,88.94c-30.83,6.51-60.08,9.6-91.54,7.78C1738.73,324.63,1745.3,216.82,1726.05,106.42Z"/><path d="M1855.21,403.32c-3.38-5.31-3.74-14.82-1.3-28.79,3-17.15,6.88-34.22,10.64-51.25q23.45-2.38,46.81-5.18c-1.26,4.91-1.65,8.65-1,11.19s2.54,3.48,5.79,2.87a12.8,12.8,0,0,0,7.47-4.1,23.55,23.55,0,0,0,4.62-8.95c.91-3.07,1-5.51.47-7.33a7.67,7.67,0,0,0-4.29-4.39,54.92,54.92,0,0,0-10.51-3.53c-9.79-2.41-17.71-6.86-23.32-13.64s-9.51-17-12.43-30.49c-3.71-17.07-6.11-34.65-9.25-51.86-3.84-21-11.48-44.86-8.26-65.53,1.64-10.51,9.62-11.81,23.1-4.22,16.45,9.25,31.16,22.45,45,35.5,16.46,15.57,33.6,33.56,41.62,55.26-13.32-3-26.8-5.53-40.26-7.71a32.34,32.34,0,0,0-4.51-9.36,11.49,11.49,0,0,0-7.26-4.78c-2.61-.53-4.09.08-4.5,1.84s-.19,4.22.59,7.38a19.09,19.09,0,0,0,3.23,7.19,20.53,20.53,0,0,0,6.87,5.24,104,104,0,0,0,13.85,5.61c10.16,3.45,18.81,8.6,25.3,15.35a48,48,0,0,1,13,25.14c1.72,9.91.76,21.83-4.42,35.06-6.13,15.67-16.54,29.46-28.14,41.5a310.8,310.8,0,0,1-33.8,30c-11,8.44-21.12,15.5-30.65,20.16C1866.63,407.83,1858.6,408.63,1855.21,403.32Z"/><path d="M134.26,408a155.71,155.71,0,0,1-14.07-19.25A137.16,137.16,0,0,1,92.66,388a106.82,106.82,0,0,0,10.89,18.34,106.65,106.65,0,0,1-48.43-22.22c-73.71-60.31-5.94-161,45.48-206.62a436.16,436.16,0,0,1,62.85-14.64C118.64,236.16,136,331.57,183.16,398.69A322.79,322.79,0,0,1,134.26,408ZM76.44,320c5.9-.1,8.85-.22,14.76-.57-3.81-20.48-6.11-40.16-4-61,.67-4.66,1.07-7,2-11.48l-.87.09c-1.57,4.59-2.29,6.91-3.59,11.61A237.46,237.46,0,0,0,76.44,320Z"/><path d="M288.45,142c12.38-2.65,22-2.24,29.79,2.48s13.29,14.14,16.45,30.09c4.39,22.19,3.29,45.57,1.69,67.89-1.67,23.38-3.73,48.32-10.55,70.25-4.3,13.81-9.91,28.78-20.74,39.65-8.79,8.82-19.25,14.17-32.66,17.53-19.57,5.43-38.66,11.83-57.83,18.52-32.57-76.54-26.35-163.3,15.34-235C249.53,150,269,146.16,288.45,142Zm-16.54,134.3c3.13-6.9,4.91-15.87,5.76-26.65.88-11,.44-19.42-1.66-25.17s-5.69-8-11-7c-3.63.71-5.45,1.08-9.07,1.82a350.35,350.35,0,0,0-5.44,70.76c3.62-.79,5.44-1.18,9.07-1.93C264.75,287.08,268.79,283.19,271.91,276.28Z"/><path d="M446.6,108.43c12.47-2.1,23.91.49,34.31,9.55,14.5,12.61,21.12,30.8,26.82,48.38,9.63,29.68,10.39,63.36,8.37,94-2,30.36-6.89,63.31-19.13,91.52-7.3,16.84-15.7,34.83-31.91,45.16-11.4,7.27-23.32,6.41-36.11.07a586.58,586.58,0,0,0-56.2-24.32,1453.51,1453.51,0,0,1,15.39-253C407.55,115.6,427,111.74,446.6,108.43Zm5,176.25c3.65-7.36,6.06-18.07,7-31.77.95-14,0-25.3-2.61-33.6s-6.57-12.42-11.85-12.74c-3.59-.21-5.38-.31-9-.5-1.28,28.66-3.25,57.28-5.52,85.88,3.55.75,5.32,1.14,8.86,1.92C443.55,295,447.92,292,451.56,284.68Z"/><path d="M547.07,98.64a472.21,472.21,0,0,1,50.32,2.09q41.73,172.83-18.31,340.15a205.58,205.58,0,0,1-53.25-4.05C557.3,325.32,564.11,213.11,547.07,98.64Z"/><path d="M636.94,106.5a312.74,312.74,0,0,1,43.49,11.56c27.84,42.7,51.69,86.16,65.76,135.4h.29c5-39.05,4.84-77.77-15.64-112.8a232,232,0,0,1,36.64,25.56c69.4,63.9,70.82,142.88-.06,206.87a340.76,340.76,0,0,1-40.79,26.15c26.63-34.5,42.55-70.19,49.75-113.22l-.46,0C762.77,322.5,744.55,354,722,385.4c-7.44,2.48-11.22,3.63-18.8,5.83,10.56-33.64,12-68,10.24-102.9l-.59,0c-6.6,48-20.81,91.85-44.13,134.38-15.65,4.85-31,9-46.94,12.64C668.37,328,673.7,217.53,636.94,106.5Z"/></svg>