<svg width="84" height="88" viewBox="0 0 84 88" fill="none" xmlns="http://www.w3.org/2000/svg">
<path d="M56.5126 50.7255L58.1886 39.7985H47.7044V32.7076C47.7044 29.7182 49.1688 26.8043 53.8648 26.8043H58.6316V17.5016C58.6316 17.5016 54.3055 16.7632 50.1696 16.7632C41.5348 16.7632 35.8912 21.9964 35.8912 31.4704V39.7985H26.293V50.7255H35.8912V77.1408C37.8158 77.4427 39.7884 77.6 41.7978 77.6C43.8072 77.6 45.7798 77.4427 47.7044 77.1408V50.7255H56.5126" fill="#404094"/>
<g filter="url(#filter0_bdii_22_262)">
<rect x="4" y="2" width="75.6" height="75.6" rx="12" fill="#B0B0DC"/>
</g>
<g opacity="0.529578" filter="url(#filter1_f_22_262)">
<path d="M64.4886 46.0985H54.0044V39.0076C54.0044 36.0181 55.4689 33.1042 60.1649 33.1042H64.9316V23.8015C64.9316 23.8015 60.6056 23.0632 56.4697 23.0632C47.8348 23.0632 42.1912 28.2964 42.1912 37.7704V46.0985H32.593V57.0255H42.1912V76.199L54.0044 76.025V57.0255H62.8126L64.4886 46.0985Z" fill="#B0B0DC"/>
</g>
<g filter="url(#filter2_d_22_262)">
<path d="M56.5126 50.7255L58.1886 39.7985H47.7044V32.7076C47.7044 29.7182 49.1688 26.8043 53.8648 26.8043H58.6316V17.5016C58.6316 17.5016 54.3055 16.7632 50.1696 16.7632C41.5348 16.7632 35.8912 21.9964 35.8912 31.4704V39.7985H26.293V50.7255H35.8912V77.1408C37.8158 77.4427 39.7884 77.6 41.7978 77.6C43.8072 77.6 45.7798 77.4427 47.7044 77.1408V50.7255H56.5126" fill="#404094"/>
</g>
<defs>
<filter id="filter0_bdii_22_262" x="-6.87313" y="-8.87313" width="97.3462" height="97.3462" filterUnits="userSpaceOnUse" color-interpolation-filters="sRGB">
<feFlood flood-opacity="0" result="BackgroundImageFix"/>
<feGaussianBlur in="BackgroundImage" stdDeviation="5.43656"/>
<feComposite in2="SourceAlpha" operator="in" result="effect1_backgroundBlur_22_262"/>
<feColorMatrix in="SourceAlpha" type="matrix" values="0 0 0 0 0 0 0 0 0 0 0 0 0 0 0 0 0 0 127 0" result="hardAlpha"/>
<feOffset dy="2"/>
<feGaussianBlur stdDeviation="2"/>
<feColorMatrix type="matrix" values="0 0 0 0 0 0 0 0 0 0 0 0 0 0 0 0 0 0 0.12 0"/>
<feBlend mode="normal" in2="effect1_backgroundBlur_22_262" result="effect2_dropShadow_22_262"/>
<feBlend mode="normal" in="SourceGraphic" in2="effect2_dropShadow_22_262" result="shape"/>
<feColorMatrix in="SourceAlpha" type="matrix" values="0 0 0 0 0 0 0 0 0 0 0 0 0 0 0 0 0 0 127 0" result="hardAlpha"/>
<feOffset dx="8" dy="8"/>
<feGaussianBlur stdDeviation="12"/>
<feComposite in2="hardAlpha" operator="arithmetic" k2="-1" k3="1"/>
<feColorMatrix type="matrix" values="0 0 0 0 1 0 0 0 0 1 0 0 0 0 1 0 0 0 1 0"/>
<feBlend mode="normal" in2="shape" result="effect3_innerShadow_22_262"/>
<feColorMatrix in="SourceAlpha" type="matrix" values="0 0 0 0 0 0 0 0 0 0 0 0 0 0 0 0 0 0 127 0" result="hardAlpha"/>
<feOffset dx="-4" dy="-4"/>
<feGaussianBlur stdDeviation="12"/>
<feComposite in2="hardAlpha" operator="arithmetic" k2="-1" k3="1"/>
<feColorMatrix type="matrix" values="0 0 0 0 1 0 0 0 0 1 0 0 0 0 1 0 0 0 0.04 0"/>
<feBlend mode="normal" in2="effect3_innerShadow_22_262" result="effect4_innerShadow_22_262"/>
</filter>
<filter id="filter1_f_22_262" x="21.7199" y="12.1901" width="54.0849" height="74.8821" filterUnits="userSpaceOnUse" color-interpolation-filters="sRGB">
<feFlood flood-opacity="0" result="BackgroundImageFix"/>
<feBlend mode="normal" in="SourceGraphic" in2="BackgroundImageFix" result="shape"/>
<feGaussianBlur stdDeviation="5.43656" result="effect1_foregroundBlur_22_262"/>
</filter>
<filter id="filter2_d_22_262" x="22.293" y="10.7632" width="40.3386" height="68.8367" filterUnits="userSpaceOnUse" color-interpolation-filters="sRGB">
<feFlood flood-opacity="0" result="BackgroundImageFix"/>
<feColorMatrix in="SourceAlpha" type="matrix" values="0 0 0 0 0 0 0 0 0 0 0 0 0 0 0 0 0 0 127 0" result="hardAlpha"/>
<feOffset dy="-2"/>
<feGaussianBlur stdDeviation="2"/>
<feColorMatrix type="matrix" values="0 0 0 0 1 0 0 0 0 1 0 0 0 0 1 0 0 0 1 0"/>
<feBlend mode="normal" in2="BackgroundImageFix" result="effect1_dropShadow_22_262"/>
<feBlend mode="normal" in="SourceGraphic" in2="effect1_dropShadow_22_262" result="shape"/>
</filter>
</defs>
</svg>
