<svg width="85" height="84" viewBox="0 0 85 84" fill="none" xmlns="http://www.w3.org/2000/svg">
<path fill-rule="evenodd" clip-rule="evenodd" d="M41.8 14.6C34.9561 14.6 34.0979 14.629 31.41 14.7516C28.7278 14.874 26.8959 15.3 25.293 15.923C23.6359 16.5669 22.2306 17.4286 20.8295 18.8295C19.4286 20.2306 18.5669 21.6359 17.923 23.293C17.3 24.8959 16.874 26.7278 16.7516 29.41C16.629 32.0979 16.6 32.9561 16.6 39.8C16.6 46.6439 16.629 47.5021 16.7516 50.1899C16.874 52.8722 17.3 54.704 17.923 56.3069C18.5669 57.9641 19.4286 59.3694 20.8295 60.7704C22.2306 62.1714 23.6359 63.0331 25.293 63.6771C26.8959 64.3 28.7278 64.726 31.41 64.8483C34.0979 64.971 34.9561 65 41.8 65C48.6439 65 49.5021 64.971 52.1899 64.8483C54.8722 64.726 56.704 64.3 58.3069 63.6771C59.9641 63.0331 61.3694 62.1714 62.7704 60.7704C64.1714 59.3694 65.0331 57.9641 65.6771 56.3069C66.3 54.704 66.726 52.8722 66.8483 50.1899C66.971 47.5021 67 46.6439 67 39.8C67 32.9561 66.971 32.0979 66.8483 29.41C66.726 26.7278 66.3 24.8959 65.6771 23.293C65.0331 21.6359 64.1714 20.2306 62.7704 18.8295C61.3694 17.4286 59.9641 16.5669 58.3069 15.923C56.704 15.3 54.8722 14.874 52.1899 14.7516C49.5021 14.629 48.6439 14.6 41.8 14.6ZM41.8 19.1405C48.5286 19.1405 49.3257 19.1662 51.9829 19.2875C54.4399 19.3995 55.7742 19.81 56.6622 20.1551C57.8385 20.6123 58.6779 21.1584 59.5597 22.0402C60.4416 22.922 60.9877 23.7615 61.4448 24.9378C61.7899 25.8257 62.2005 27.1601 62.3125 29.617C62.4337 32.2743 62.4594 33.0713 62.4594 39.8C62.4594 46.5287 62.4337 47.3257 62.3125 49.983C62.2005 52.4399 61.7899 53.7743 61.4448 54.6622C60.9877 55.8385 60.4416 56.678 59.5597 57.5597C58.6779 58.4416 57.8385 58.9877 56.6622 59.4448C55.7742 59.7899 54.4399 60.2005 51.9829 60.3125C49.3261 60.4338 48.5291 60.4595 41.8 60.4595C35.0708 60.4595 34.2739 60.4338 31.617 60.3125C29.16 60.2005 27.8257 59.7899 26.9377 59.4448C25.7615 58.9877 24.922 58.4416 24.0402 57.5597C23.1584 56.678 22.6123 55.8385 22.1551 54.6622C21.81 53.7743 21.3995 52.4399 21.2874 49.983C21.1662 47.3257 21.1405 46.5287 21.1405 39.8C21.1405 33.0713 21.1662 32.2743 21.2874 29.617C21.3995 27.1601 21.81 25.8257 22.1551 24.9378C22.6123 23.7615 23.1583 22.922 24.0402 22.0402C24.922 21.1584 25.7615 20.6123 26.9377 20.1551C27.8257 19.81 29.16 19.3995 31.617 19.2875C34.2742 19.1662 35.0713 19.1405 41.8 19.1405Z" fill="#404094"/>
<path fill-rule="evenodd" clip-rule="evenodd" d="M41.8001 48.2C37.1608 48.2 33.4 44.4392 33.4 39.8001C33.4 35.1608 37.1608 31.4 41.8001 31.4C46.4392 31.4 50.2 35.1608 50.2 39.8001C50.2 44.4392 46.4392 48.2 41.8001 48.2ZM41.8001 26.8595C34.6531 26.8595 28.8595 32.6531 28.8595 39.8001C28.8595 46.9469 34.6531 52.7406 41.8001 52.7406C48.9469 52.7406 54.7406 46.9469 54.7406 39.8001C54.7406 32.6531 48.9469 26.8595 41.8001 26.8595Z" fill="#404094"/>
<path fill-rule="evenodd" clip-rule="evenodd" d="M58.2758 26.3482C58.2758 28.0183 56.9219 29.3721 55.2518 29.3721C53.5817 29.3721 52.2278 28.0183 52.2278 26.3482C52.2278 24.678 53.5817 23.3241 55.2518 23.3241C56.9219 23.3241 58.2758 24.678 58.2758 26.3482" fill="#404094"/>
<g filter="url(#filter0_bdii_22_267)">
<rect x="4" y="2" width="75.6" height="75.6" rx="12" fill="#9494DC"/>
</g>
<g opacity="0.529578" filter="url(#filter1_f_22_267)">
<path fill-rule="evenodd" clip-rule="evenodd" d="M48.1 20.9C41.2561 20.9 40.3979 20.929 37.71 21.0517C35.0278 21.174 33.1959 21.6 31.593 22.223C29.9359 22.8669 28.5305 23.7286 27.1295 25.1296C25.7286 26.5306 24.8669 27.9359 24.223 29.5931C23.6 31.196 23.1739 33.0279 23.0516 35.7101C22.929 38.3979 22.9 39.2561 22.9 46.1001C22.9 52.9439 22.929 53.8021 23.0516 56.49C23.1739 59.1722 23.6 61.0041 24.223 62.607C24.8669 64.2641 25.7286 65.6694 27.1295 67.0705C28.5305 68.4714 29.9359 69.3331 31.593 69.9771C33.1959 70.6 35.0278 71.026 37.71 71.1484C40.3979 71.271 41.2561 71.3 48.1 71.3C54.9439 71.3 55.802 71.271 58.4899 71.1484C61.1721 71.026 63.004 70.6 64.6069 69.9771C66.264 69.3331 67.6694 68.4714 69.0704 67.0705C70.4714 65.6694 71.333 64.2641 71.977 62.607C72.5999 61.0041 73.026 59.1722 73.1483 56.49C73.271 53.8021 73.3 52.9439 73.3 46.1001C73.3 39.2561 73.271 38.3979 73.1483 35.7101C73.026 33.0279 72.5999 31.196 71.977 29.5931C71.333 27.9359 70.4714 26.5306 69.0704 25.1296C67.6694 23.7286 66.264 22.8669 64.6069 22.223C63.004 21.6 61.1721 21.174 58.4899 21.0517C55.802 20.929 54.9439 20.9 48.1 20.9ZM48.1 25.4405C54.8286 25.4405 55.6257 25.4662 58.2829 25.5875C60.7399 25.6995 62.0742 26.11 62.9622 26.4551C64.1385 26.9123 64.9779 27.4584 65.8597 28.3402C66.7416 29.222 67.2877 30.0615 67.7448 31.2378C68.0899 32.1257 68.5005 33.4601 68.6125 35.917C68.7337 38.5743 68.7594 39.3713 68.7594 46.1C68.7594 52.8287 68.7337 53.6257 68.6125 56.283C68.5005 58.7399 68.0899 60.0743 67.7448 60.9622C67.2877 62.1385 66.7416 62.978 65.8597 63.8597C64.9779 64.7416 64.1385 65.2877 62.9622 65.7448C62.0742 66.0899 60.7399 66.5005 58.2829 66.6125C55.6261 66.7338 54.8291 66.7595 48.1 66.7595C41.3708 66.7595 40.5739 66.7338 37.917 66.6125C35.46 66.5005 34.1257 66.0899 33.2377 65.7448C32.0615 65.2877 31.222 64.7416 30.3402 63.8597C29.4584 62.978 28.9123 62.1385 28.4551 60.9622C28.11 60.0743 27.6995 58.7399 27.5874 56.283C27.4662 53.6257 27.4405 52.8287 27.4405 46.1C27.4405 39.3713 27.4662 38.5743 27.5874 35.917C27.6995 33.4601 28.11 32.1257 28.4551 31.2378C28.9123 30.0615 29.4583 29.222 30.3402 28.3402C31.222 27.4584 32.0615 26.9123 33.2377 26.4551C34.1257 26.11 35.46 25.6995 37.917 25.5875C40.5742 25.4662 41.3713 25.4405 48.1 25.4405Z" fill="#9494DC"/>
</g>
<g opacity="0.529578" filter="url(#filter2_f_22_267)">
<path fill-rule="evenodd" clip-rule="evenodd" d="M48.1001 54.5C43.4608 54.5 39.7 50.7392 39.7 46.1001C39.7 41.4608 43.4608 37.7 48.1001 37.7C52.7392 37.7 56.5 41.4608 56.5 46.1001C56.5 50.7392 52.7392 54.5 48.1001 54.5ZM48.1001 33.1595C40.9531 33.1595 35.1595 38.9531 35.1595 46.1001C35.1595 53.2469 40.9531 59.0406 48.1001 59.0406C55.2469 59.0406 61.0406 53.2469 61.0406 46.1001C61.0406 38.9531 55.2469 33.1595 48.1001 33.1595Z" fill="#9494DC"/>
</g>
<g opacity="0.529578" filter="url(#filter3_f_22_267)">
<path fill-rule="evenodd" clip-rule="evenodd" d="M64.5758 32.6482C64.5758 34.3183 63.2219 35.6722 61.5518 35.6722C59.8817 35.6722 58.5278 34.3183 58.5278 32.6482C58.5278 30.9781 59.8817 29.6241 61.5518 29.6241C63.2219 29.6241 64.5758 30.9781 64.5758 32.6482" fill="#9494DC"/>
</g>
<g filter="url(#filter4_d_22_267)">
<path fill-rule="evenodd" clip-rule="evenodd" d="M41.8 14.6C34.9561 14.6 34.0979 14.629 31.41 14.7516C28.7278 14.874 26.8959 15.3 25.293 15.923C23.6359 16.5669 22.2306 17.4286 20.8295 18.8295C19.4286 20.2306 18.5669 21.6359 17.923 23.293C17.3 24.8959 16.874 26.7278 16.7516 29.41C16.629 32.0979 16.6 32.9561 16.6 39.8C16.6 46.6439 16.629 47.5021 16.7516 50.1899C16.874 52.8722 17.3 54.704 17.923 56.3069C18.5669 57.9641 19.4286 59.3694 20.8295 60.7704C22.2306 62.1714 23.6359 63.0331 25.293 63.6771C26.8959 64.3 28.7278 64.726 31.41 64.8483C34.0979 64.971 34.9561 65 41.8 65C48.6439 65 49.5021 64.971 52.1899 64.8483C54.8722 64.726 56.704 64.3 58.3069 63.6771C59.9641 63.0331 61.3694 62.1714 62.7704 60.7704C64.1714 59.3694 65.0331 57.9641 65.6771 56.3069C66.3 54.704 66.726 52.8722 66.8483 50.1899C66.971 47.5021 67 46.6439 67 39.8C67 32.9561 66.971 32.0979 66.8483 29.41C66.726 26.7278 66.3 24.8959 65.6771 23.293C65.0331 21.6359 64.1714 20.2306 62.7704 18.8295C61.3694 17.4286 59.9641 16.5669 58.3069 15.923C56.704 15.3 54.8722 14.874 52.1899 14.7516C49.5021 14.629 48.6439 14.6 41.8 14.6ZM41.8 19.1405C48.5286 19.1405 49.3257 19.1662 51.9829 19.2875C54.4399 19.3995 55.7742 19.81 56.6622 20.1551C57.8385 20.6123 58.6779 21.1584 59.5597 22.0402C60.4416 22.922 60.9877 23.7615 61.4448 24.9378C61.7899 25.8257 62.2005 27.1601 62.3125 29.617C62.4337 32.2743 62.4594 33.0713 62.4594 39.8C62.4594 46.5287 62.4337 47.3257 62.3125 49.983C62.2005 52.4399 61.7899 53.7743 61.4448 54.6622C60.9877 55.8385 60.4416 56.678 59.5597 57.5597C58.6779 58.4416 57.8385 58.9877 56.6622 59.4448C55.7742 59.7899 54.4399 60.2005 51.9829 60.3125C49.3261 60.4338 48.5291 60.4595 41.8 60.4595C35.0708 60.4595 34.2739 60.4338 31.617 60.3125C29.16 60.2005 27.8257 59.7899 26.9377 59.4448C25.7615 58.9877 24.922 58.4416 24.0402 57.5597C23.1584 56.678 22.6123 55.8385 22.1551 54.6622C21.81 53.7743 21.3995 52.4399 21.2874 49.983C21.1662 47.3257 21.1405 46.5287 21.1405 39.8C21.1405 33.0713 21.1662 32.2743 21.2874 29.617C21.3995 27.1601 21.81 25.8257 22.1551 24.9378C22.6123 23.7615 23.1583 22.922 24.0402 22.0402C24.922 21.1584 25.7615 20.6123 26.9377 20.1551C27.8257 19.81 29.16 19.3995 31.617 19.2875C34.2742 19.1662 35.0713 19.1405 41.8 19.1405Z" fill="#404094"/>
</g>
<g filter="url(#filter5_d_22_267)">
<path fill-rule="evenodd" clip-rule="evenodd" d="M41.8001 48.2C37.1608 48.2 33.4 44.4392 33.4 39.8001C33.4 35.1608 37.1608 31.4 41.8001 31.4C46.4392 31.4 50.2 35.1608 50.2 39.8001C50.2 44.4392 46.4392 48.2 41.8001 48.2ZM41.8001 26.8595C34.6531 26.8595 28.8595 32.6531 28.8595 39.8001C28.8595 46.9469 34.6531 52.7406 41.8001 52.7406C48.9469 52.7406 54.7406 46.9469 54.7406 39.8001C54.7406 32.6531 48.9469 26.8595 41.8001 26.8595Z" fill="#404094"/>
</g>
<g filter="url(#filter6_d_22_267)">
<path fill-rule="evenodd" clip-rule="evenodd" d="M58.2758 26.3482C58.2758 28.0183 56.9219 29.3721 55.2518 29.3721C53.5817 29.3721 52.2278 28.0183 52.2278 26.3482C52.2278 24.678 53.5817 23.3241 55.2518 23.3241C56.9219 23.3241 58.2758 24.678 58.2758 26.3482" fill="#404094"/>
</g>
<defs>
<filter id="filter0_bdii_22_267" x="-6.87313" y="-8.87313" width="97.3463" height="97.3462" filterUnits="userSpaceOnUse" color-interpolation-filters="sRGB">
<feFlood flood-opacity="0" result="BackgroundImageFix"/>
<feGaussianBlur in="BackgroundImage" stdDeviation="5.43656"/>
<feComposite in2="SourceAlpha" operator="in" result="effect1_backgroundBlur_22_267"/>
<feColorMatrix in="SourceAlpha" type="matrix" values="0 0 0 0 0 0 0 0 0 0 0 0 0 0 0 0 0 0 127 0" result="hardAlpha"/>
<feOffset dy="2"/>
<feGaussianBlur stdDeviation="2"/>
<feColorMatrix type="matrix" values="0 0 0 0 0 0 0 0 0 0 0 0 0 0 0 0 0 0 0.12 0"/>
<feBlend mode="normal" in2="effect1_backgroundBlur_22_267" result="effect2_dropShadow_22_267"/>
<feBlend mode="normal" in="SourceGraphic" in2="effect2_dropShadow_22_267" result="shape"/>
<feColorMatrix in="SourceAlpha" type="matrix" values="0 0 0 0 0 0 0 0 0 0 0 0 0 0 0 0 0 0 127 0" result="hardAlpha"/>
<feOffset dx="8" dy="8"/>
<feGaussianBlur stdDeviation="12"/>
<feComposite in2="hardAlpha" operator="arithmetic" k2="-1" k3="1"/>
<feColorMatrix type="matrix" values="0 0 0 0 1 0 0 0 0 1 0 0 0 0 1 0 0 0 1 0"/>
<feBlend mode="normal" in2="shape" result="effect3_innerShadow_22_267"/>
<feColorMatrix in="SourceAlpha" type="matrix" values="0 0 0 0 0 0 0 0 0 0 0 0 0 0 0 0 0 0 127 0" result="hardAlpha"/>
<feOffset dx="-4" dy="-4"/>
<feGaussianBlur stdDeviation="12"/>
<feComposite in2="hardAlpha" operator="arithmetic" k2="-1" k3="1"/>
<feColorMatrix type="matrix" values="0 0 0 0 1 0 0 0 0 1 0 0 0 0 1 0 0 0 0.04 0"/>
<feBlend mode="normal" in2="effect3_innerShadow_22_267" result="effect4_innerShadow_22_267"/>
</filter>
<filter id="filter1_f_22_267" x="12.0268" y="10.0269" width="72.1462" height="72.1463" filterUnits="userSpaceOnUse" color-interpolation-filters="sRGB">
<feFlood flood-opacity="0" result="BackgroundImageFix"/>
<feBlend mode="normal" in="SourceGraphic" in2="BackgroundImageFix" result="shape"/>
<feGaussianBlur stdDeviation="5.43656" result="effect1_foregroundBlur_22_267"/>
</filter>
<filter id="filter2_f_22_267" x="24.2864" y="22.2864" width="47.6273" height="47.6273" filterUnits="userSpaceOnUse" color-interpolation-filters="sRGB">
<feFlood flood-opacity="0" result="BackgroundImageFix"/>
<feBlend mode="normal" in="SourceGraphic" in2="BackgroundImageFix" result="shape"/>
<feGaussianBlur stdDeviation="5.43656" result="effect1_foregroundBlur_22_267"/>
</filter>
<filter id="filter3_f_22_267" x="47.6547" y="18.751" width="27.7943" height="27.7943" filterUnits="userSpaceOnUse" color-interpolation-filters="sRGB">
<feFlood flood-opacity="0" result="BackgroundImageFix"/>
<feBlend mode="normal" in="SourceGraphic" in2="BackgroundImageFix" result="shape"/>
<feGaussianBlur stdDeviation="5.43656" result="effect1_foregroundBlur_22_267"/>
</filter>
<filter id="filter4_d_22_267" x="12.6" y="8.59998" width="58.4" height="58.4" filterUnits="userSpaceOnUse" color-interpolation-filters="sRGB">
<feFlood flood-opacity="0" result="BackgroundImageFix"/>
<feColorMatrix in="SourceAlpha" type="matrix" values="0 0 0 0 0 0 0 0 0 0 0 0 0 0 0 0 0 0 127 0" result="hardAlpha"/>
<feOffset dy="-2"/>
<feGaussianBlur stdDeviation="2"/>
<feColorMatrix type="matrix" values="0 0 0 0 1 0 0 0 0 1 0 0 0 0 1 0 0 0 1 0"/>
<feBlend mode="normal" in2="BackgroundImageFix" result="effect1_dropShadow_22_267"/>
<feBlend mode="normal" in="SourceGraphic" in2="effect1_dropShadow_22_267" result="shape"/>
</filter>
<filter id="filter5_d_22_267" x="24.8595" y="20.8595" width="33.8811" height="33.881" filterUnits="userSpaceOnUse" color-interpolation-filters="sRGB">
<feFlood flood-opacity="0" result="BackgroundImageFix"/>
<feColorMatrix in="SourceAlpha" type="matrix" values="0 0 0 0 0 0 0 0 0 0 0 0 0 0 0 0 0 0 127 0" result="hardAlpha"/>
<feOffset dy="-2"/>
<feGaussianBlur stdDeviation="2"/>
<feColorMatrix type="matrix" values="0 0 0 0 1 0 0 0 0 1 0 0 0 0 1 0 0 0 1 0"/>
<feBlend mode="normal" in2="BackgroundImageFix" result="effect1_dropShadow_22_267"/>
<feBlend mode="normal" in="SourceGraphic" in2="effect1_dropShadow_22_267" result="shape"/>
</filter>
<filter id="filter6_d_22_267" x="48.2278" y="17.3241" width="14.048" height="14.048" filterUnits="userSpaceOnUse" color-interpolation-filters="sRGB">
<feFlood flood-opacity="0" result="BackgroundImageFix"/>
<feColorMatrix in="SourceAlpha" type="matrix" values="0 0 0 0 0 0 0 0 0 0 0 0 0 0 0 0 0 0 127 0" result="hardAlpha"/>
<feOffset dy="-2"/>
<feGaussianBlur stdDeviation="2"/>
<feColorMatrix type="matrix" values="0 0 0 0 1 0 0 0 0 1 0 0 0 0 1 0 0 0 1 0"/>
<feBlend mode="normal" in2="BackgroundImageFix" result="effect1_dropShadow_22_267"/>
<feBlend mode="normal" in="SourceGraphic" in2="effect1_dropShadow_22_267" result="shape"/>
</filter>
</defs>
</svg>
