<svg width="84" height="84" viewBox="0 0 84 84" fill="none" xmlns="http://www.w3.org/2000/svg">
<path d="M62.2716 57.125H54.4452V44.847C54.4452 41.9192 54.393 38.1502 50.3747 38.1502C46.2984 38.1502 45.6747 41.3401 45.6747 44.6338V57.1241H37.8484V31.8756H45.3616V35.326H45.467C46.9968 32.7059 49.8517 31.1351 52.88 31.2477C60.8123 31.2477 62.2749 36.4744 62.2749 43.2741L62.2716 57.125Z" fill="#404094"/>
<path d="M29.0177 28.4243C29.0172 28.4243 29.017 28.4243 29.0168 28.4243C26.5252 28.4243 24.475 26.3707 24.475 23.8748C24.475 21.3788 26.5252 19.325 29.0168 19.325C31.5081 19.325 33.5581 21.3784 33.5585 23.8738C33.5585 23.874 33.5585 23.8743 33.5585 23.8748C33.5585 26.3702 31.5088 28.424 29.0177 28.4243" fill="#404094"/>
<path d="M32.9309 57.1249H25.0964V31.8755H32.9309V57.1249Z" fill="#404094"/>
<g filter="url(#filter0_bdii_22_232)">
<rect x="4" y="2" width="75.6" height="75.6" rx="12" fill="#AFAFE9"/>
</g>
<g opacity="0.528898" filter="url(#filter1_f_22_232)">
<path d="M68.5716 63.425H60.7452V51.147C60.7452 48.2192 60.693 44.4502 56.6747 44.4502C52.5984 44.4502 51.9747 47.6401 51.9747 50.9338V63.4241H44.1484V38.1756H51.6616V41.626H51.767C53.2967 39.0059 56.1517 37.4351 59.18 37.5477C67.1123 37.5477 68.5749 42.7744 68.5749 49.5741L68.5716 63.425Z" fill="#404094"/>
</g>
<g opacity="0.528898" filter="url(#filter2_f_22_232)">
<path d="M35.3177 34.7243C35.3172 34.7243 35.317 34.7243 35.3167 34.7243C32.8252 34.7243 30.775 32.6707 30.775 30.1747C30.775 27.6788 32.8252 25.625 35.3167 25.625C37.8081 25.625 39.8581 27.6783 39.8585 30.1738C39.8585 30.174 39.8585 30.1743 39.8585 30.1747C39.8585 32.6702 37.8088 34.724 35.3177 34.7243" fill="#404094"/>
</g>
<g opacity="0.528898" filter="url(#filter3_f_22_232)">
<path d="M39.2308 63.425H31.3964V38.1756H39.2308V63.425Z" fill="#404094"/>
</g>
<g filter="url(#filter4_d_22_232)">
<path d="M62.2716 57.125H54.4452V44.847C54.4452 41.9192 54.393 38.1502 50.3747 38.1502C46.2984 38.1502 45.6747 41.3401 45.6747 44.6338V57.1241H37.8484V31.8756H45.3616V35.326H45.467C46.9968 32.7059 49.8517 31.1351 52.88 31.2477C60.8123 31.2477 62.2749 36.4744 62.2749 43.2741L62.2716 57.125Z" fill="#404094"/>
</g>
<g filter="url(#filter5_d_22_232)">
<path d="M29.0177 28.4243C29.0172 28.4243 29.017 28.4243 29.0168 28.4243C26.5252 28.4243 24.475 26.3707 24.475 23.8748C24.475 21.3788 26.5252 19.325 29.0168 19.325C31.5081 19.325 33.5581 21.3784 33.5585 23.8738C33.5585 23.874 33.5585 23.8743 33.5585 23.8748C33.5585 26.3702 31.5088 28.424 29.0177 28.4243" fill="#404094"/>
</g>
<g filter="url(#filter6_d_22_232)">
<path d="M32.9309 57.1249H25.0964V31.8755H32.9309V57.1249Z" fill="#404094"/>
</g>
<defs>
<filter id="filter0_bdii_22_232" x="-6.87313" y="-8.87313" width="97.3463" height="97.3462" filterUnits="userSpaceOnUse" color-interpolation-filters="sRGB">
<feFlood flood-opacity="0" result="BackgroundImageFix"/>
<feGaussianBlur in="BackgroundImage" stdDeviation="5.43656"/>
<feComposite in2="SourceAlpha" operator="in" result="effect1_backgroundBlur_22_232"/>
<feColorMatrix in="SourceAlpha" type="matrix" values="0 0 0 0 0 0 0 0 0 0 0 0 0 0 0 0 0 0 127 0" result="hardAlpha"/>
<feOffset dy="2"/>
<feGaussianBlur stdDeviation="2"/>
<feColorMatrix type="matrix" values="0 0 0 0 0 0 0 0 0 0 0 0 0 0 0 0 0 0 0.12 0"/>
<feBlend mode="normal" in2="effect1_backgroundBlur_22_232" result="effect2_dropShadow_22_232"/>
<feBlend mode="normal" in="SourceGraphic" in2="effect2_dropShadow_22_232" result="shape"/>
<feColorMatrix in="SourceAlpha" type="matrix" values="0 0 0 0 0 0 0 0 0 0 0 0 0 0 0 0 0 0 127 0" result="hardAlpha"/>
<feOffset dx="8" dy="8"/>
<feGaussianBlur stdDeviation="12"/>
<feComposite in2="hardAlpha" operator="arithmetic" k2="-1" k3="1"/>
<feColorMatrix type="matrix" values="0 0 0 0 1 0 0 0 0 1 0 0 0 0 1 0 0 0 1 0"/>
<feBlend mode="normal" in2="shape" result="effect3_innerShadow_22_232"/>
<feColorMatrix in="SourceAlpha" type="matrix" values="0 0 0 0 0 0 0 0 0 0 0 0 0 0 0 0 0 0 127 0" result="hardAlpha"/>
<feOffset dx="-4" dy="-4"/>
<feGaussianBlur stdDeviation="12"/>
<feComposite in2="hardAlpha" operator="arithmetic" k2="-1" k3="1"/>
<feColorMatrix type="matrix" values="0 0 0 0 1 0 0 0 0 1 0 0 0 0 1 0 0 0 0.04 0"/>
<feBlend mode="normal" in2="effect3_innerShadow_22_232" result="effect4_innerShadow_22_232"/>
</filter>
<filter id="filter1_f_22_232" x="33.2753" y="26.6689" width="46.1728" height="47.6292" filterUnits="userSpaceOnUse" color-interpolation-filters="sRGB">
<feFlood flood-opacity="0" result="BackgroundImageFix"/>
<feBlend mode="normal" in="SourceGraphic" in2="BackgroundImageFix" result="shape"/>
<feGaussianBlur stdDeviation="5.43656" result="effect1_foregroundBlur_22_232"/>
</filter>
<filter id="filter2_f_22_232" x="19.9018" y="14.7519" width="30.8298" height="30.8455" filterUnits="userSpaceOnUse" color-interpolation-filters="sRGB">
<feFlood flood-opacity="0" result="BackgroundImageFix"/>
<feBlend mode="normal" in="SourceGraphic" in2="BackgroundImageFix" result="shape"/>
<feGaussianBlur stdDeviation="5.43656" result="effect1_foregroundBlur_22_232"/>
</filter>
<filter id="filter3_f_22_232" x="20.5232" y="27.3025" width="29.5807" height="46.9956" filterUnits="userSpaceOnUse" color-interpolation-filters="sRGB">
<feFlood flood-opacity="0" result="BackgroundImageFix"/>
<feBlend mode="normal" in="SourceGraphic" in2="BackgroundImageFix" result="shape"/>
<feGaussianBlur stdDeviation="5.43656" result="effect1_foregroundBlur_22_232"/>
</filter>
<filter id="filter4_d_22_232" x="33.8484" y="25.2421" width="32.4265" height="33.8829" filterUnits="userSpaceOnUse" color-interpolation-filters="sRGB">
<feFlood flood-opacity="0" result="BackgroundImageFix"/>
<feColorMatrix in="SourceAlpha" type="matrix" values="0 0 0 0 0 0 0 0 0 0 0 0 0 0 0 0 0 0 127 0" result="hardAlpha"/>
<feOffset dy="-2"/>
<feGaussianBlur stdDeviation="2"/>
<feColorMatrix type="matrix" values="0 0 0 0 1 0 0 0 0 1 0 0 0 0 1 0 0 0 1 0"/>
<feBlend mode="normal" in2="BackgroundImageFix" result="effect1_dropShadow_22_232"/>
<feBlend mode="normal" in="SourceGraphic" in2="effect1_dropShadow_22_232" result="shape"/>
</filter>
<filter id="filter5_d_22_232" x="20.475" y="13.325" width="17.0836" height="17.0992" filterUnits="userSpaceOnUse" color-interpolation-filters="sRGB">
<feFlood flood-opacity="0" result="BackgroundImageFix"/>
<feColorMatrix in="SourceAlpha" type="matrix" values="0 0 0 0 0 0 0 0 0 0 0 0 0 0 0 0 0 0 127 0" result="hardAlpha"/>
<feOffset dy="-2"/>
<feGaussianBlur stdDeviation="2"/>
<feColorMatrix type="matrix" values="0 0 0 0 1 0 0 0 0 1 0 0 0 0 1 0 0 0 1 0"/>
<feBlend mode="normal" in2="BackgroundImageFix" result="effect1_dropShadow_22_232"/>
<feBlend mode="normal" in="SourceGraphic" in2="effect1_dropShadow_22_232" result="shape"/>
</filter>
<filter id="filter6_d_22_232" x="21.0964" y="25.8755" width="15.8345" height="33.2494" filterUnits="userSpaceOnUse" color-interpolation-filters="sRGB">
<feFlood flood-opacity="0" result="BackgroundImageFix"/>
<feColorMatrix in="SourceAlpha" type="matrix" values="0 0 0 0 0 0 0 0 0 0 0 0 0 0 0 0 0 0 127 0" result="hardAlpha"/>
<feOffset dy="-2"/>
<feGaussianBlur stdDeviation="2"/>
<feColorMatrix type="matrix" values="0 0 0 0 1 0 0 0 0 1 0 0 0 0 1 0 0 0 1 0"/>
<feBlend mode="normal" in2="BackgroundImageFix" result="effect1_dropShadow_22_232"/>
<feBlend mode="normal" in="SourceGraphic" in2="effect1_dropShadow_22_232" result="shape"/>
</filter>
</defs>
</svg>
