<svg id="Layer_1" data-name="Layer 1" xmlns="http://www.w3.org/2000/svg" viewBox="0 0 511.55 254.4"><defs><style>.cls-1{fill:#fff;}.cls-2{fill:#ffd166;}.cls-3{fill:#190d4d;}</style></defs><path class="cls-1" d="M344.47,65.21h110c6.57,0,12.24,1.51,16.89,4.58a33.29,33.29,0,0,1,10.19,10.49,41.2,41.2,0,0,1,4.88,12.3,54.78,54.78,0,0,1,1.27,11,35.34,35.34,0,0,1-6.4,20.5,56.48,56.48,0,0,1-14.47,14.41,68.23,68.23,0,0,1-18.75,9.05,64.65,64.65,0,0,1-19.78,3.25H367.93a1.49,1.49,0,0,0-1.36.89l-14,32a9.12,9.12,0,0,1-8.26,5.43h-46a9.13,9.13,0,0,1-7.59-4.1,9,9,0,0,1-.73-8.56l27.92-64.14a1.48,1.48,0,0,0-1.35-2.07H290.21a1.49,1.49,0,0,0-1.36.89L257.1,183.75a9.14,9.14,0,0,1-8.32,5.43H202.65a9,9,0,0,1-8.26-12.72l28.1-64.08a1.48,1.48,0,0,0-1.36-2.07H181.9a1.46,1.46,0,0,0-1.09.49l-57.39,63a34.25,34.25,0,0,1-3.8,3.8c-1.56,1.45-3.31,3-5.18,4.47a61.38,61.38,0,0,1-6.09,4.28,17,17,0,0,1-9,2.83H59.81A15.08,15.08,0,0,1,48.53,184a28.91,28.91,0,0,1-5-7.84,62.53,62.53,0,0,1-2.77-7.84c-.73-2.41-1.27-4.52-1.69-6.15a3.07,3.07,0,0,1-.12-.67l-15-85.68a9.36,9.36,0,0,1,2-7.41,9.1,9.1,0,0,1,6.94-3.2H74.64a9.07,9.07,0,0,1,8.93,7.6l8.13,50.08a1.49,1.49,0,0,0,2.55.77L145.91,68.1a8.93,8.93,0,0,1,6.64-2.89H344.47Z"/><path class="cls-2" d="M344.29,190.56h-46a10.49,10.49,0,0,1-8.73-4.71,10.38,10.38,0,0,1-.84-9.88l27.91-64.14-26.47-.14-31.85,72.62a10.48,10.48,0,0,1-9.58,6.25H202.65a10.4,10.4,0,0,1-9.52-14.66l28.1-64.07-39.33-.14-57.46,63a38.57,38.57,0,0,1-3.9,3.9c-1.59,1.47-3.35,3-5.24,4.51a61.19,61.19,0,0,1-6.24,4.39,18.23,18.23,0,0,1-9.69,3H59.81a16.31,16.31,0,0,1-12.29-5.64,29.65,29.65,0,0,1-5.25-8.21,63.91,63.91,0,0,1-2.84-8c-.72-2.42-1.27-4.55-1.7-6.19a4.26,4.26,0,0,1-.16-1l-15-85.44a10.74,10.74,0,0,1,2.27-8.53,10.5,10.5,0,0,1,8-3.7H74.64a10.41,10.41,0,0,1,10.29,8.76l8.14,50.08,51.84-55.5a10.27,10.27,0,0,1,7.64-3.34h302c6.89,0,12.82,1.62,17.65,4.81a34.73,34.73,0,0,1,10.6,10.93,42,42,0,0,1,5.05,12.72,55.88,55.88,0,0,1,1.3,11.33,36.87,36.87,0,0,1-6.63,21.28,58.09,58.09,0,0,1-14.82,14.76,69.85,69.85,0,0,1-19.13,9.23,66.16,66.16,0,0,1-20.18,3.32H367.93l-14.12,32.1A10.44,10.44,0,0,1,344.29,190.56Zm-54.08-81.63h26.38a2.85,2.85,0,0,1,2.61,4l-27.91,64.14a7.69,7.69,0,0,0,.61,7.26,7.77,7.77,0,0,0,6.44,3.48h46a7.81,7.81,0,0,0,7-4.62l14-32a2.85,2.85,0,0,1,2.62-1.71h60.42a63.34,63.34,0,0,0,19.35-3.19,66.91,66.91,0,0,0,18.39-8.87,55.15,55.15,0,0,0,14.12-14,34.16,34.16,0,0,0,6.15-19.72,53,53,0,0,0-1.24-10.75A39.59,39.59,0,0,0,480.4,81a31.94,31.94,0,0,0-9.77-10c-4.36-2.88-9.78-4.35-16.12-4.35h-302A7.54,7.54,0,0,0,146.94,69L95.25,124.6a2.86,2.86,0,0,1-4.91-1.49L82.2,73a7.64,7.64,0,0,0-7.56-6.44H32.86A7.73,7.73,0,0,0,27,69.3a7.94,7.94,0,0,0-1.67,6.3l15,85.67a2.89,2.89,0,0,0,.1.54c.42,1.63,1,3.72,1.67,6.12a63.33,63.33,0,0,0,2.72,7.67,27,27,0,0,0,4.76,7.46,13.63,13.63,0,0,0,10.26,4.75H99.37a15.67,15.67,0,0,0,8.26-2.64,56.72,56.72,0,0,0,6-4.19c1.84-1.47,3.56-3,5.11-4.39a36.52,36.52,0,0,0,3.64-3.62l57.46-63.1a2.84,2.84,0,0,1,2.11-.94h39.23a2.86,2.86,0,0,1,2.62,4L195.65,177a7.65,7.65,0,0,0,7,10.8h46.13a7.73,7.73,0,0,0,7.06-4.62l31.75-72.55A2.89,2.89,0,0,1,290.21,108.93Z"/><path class="cls-3" d="M86.2,145.56l66.32-71.31h49.33l-85.09,93.48a34.93,34.93,0,0,1-3.2,3.2q-2.19,2-4.79,4.09a45.28,45.28,0,0,1-5.09,3.6,8.84,8.84,0,0,1-4.3,1.49H59.83a6.06,6.06,0,0,1-4.59-2.19,19.61,19.61,0,0,1-3.4-5.4,52.37,52.37,0,0,1-2.39-6.69q-1-3.5-1.6-5.89l-15-85.69H74.61Z"/><path class="cls-3" d="M202.65,180.11l34.56-78.89H191.86V101c.14-.53,1.3-2,3.5-4.4s4.8-5.06,7.79-8,6.06-5.76,9.19-8.49a51.37,51.37,0,0,1,7.89-5.89h120a50.91,50.91,0,0,1-5.5,7.29Q330.9,86,326.4,90.43A94.17,94.17,0,0,1,317.7,98c-2.79,2.13-4.86,3.2-6.19,3.2H283.35l-34.56,78.89Z"/><path class="cls-3" d="M298.33,180.11,344.47,74.25H454.53q7.2,0,11.89,3.09a23.85,23.85,0,0,1,7.39,7.59,31.35,31.35,0,0,1,3.79,9.59,43.87,43.87,0,0,1,1.1,9.09A26.64,26.64,0,0,1,473.91,119a46.74,46.74,0,0,1-12.19,12.09A60.66,60.66,0,0,1,445.44,139a57,57,0,0,1-17.08,2.79H361.05l-16.78,38.35Zm80.3-78.69-13.19,30.36,23-17h38.36c.13,0,.46-.3,1-.89s1.13-1.3,1.8-2.1,1.3-1.56,1.9-2.3a6.24,6.24,0,0,0,1.1-1.7l.4-1a2.26,2.26,0,0,1-.4-1,27.94,27.94,0,0,0-2.6-2.7c-1.19-1.13-1.93-1.69-2.2-1.69Z"/></svg>