<svg id="Layer_1" data-name="Layer 1" xmlns="http://www.w3.org/2000/svg" viewBox="0 0 511.55 254.4"><defs><style>.cls-1{fill:#fff;}.cls-2{fill:#190d4d;}.cls-3{fill:#ffd166;}</style></defs><path class="cls-1" d="M343.11,25.58h110c6.57,0,12.24,1.51,16.88,4.59a33.08,33.08,0,0,1,10.19,10.49A41.22,41.22,0,0,1,485.11,53a54.63,54.63,0,0,1,1.26,11A35.4,35.4,0,0,1,480,84.49,56.64,56.64,0,0,1,465.51,98.9a68.37,68.37,0,0,1-18.75,9A64.7,64.7,0,0,1,427,111.2H366.56a1.49,1.49,0,0,0-1.35.89l-14,32a9.13,9.13,0,0,1-8.26,5.42H297a9.13,9.13,0,0,1-7.6-4.1,9,9,0,0,1-.72-8.56l27.92-64.14a1.48,1.48,0,0,0-1.36-2.07H288.84a1.46,1.46,0,0,0-1.35.89l-31.75,72.56a9.15,9.15,0,0,1-8.32,5.42H201.29A9,9,0,0,1,193,136.83l28.09-64.07a1.48,1.48,0,0,0-1.35-2.08H180.54a1.48,1.48,0,0,0-1.1.49l-57.38,63a36.12,36.12,0,0,1-3.8,3.8c-1.57,1.44-3.32,3-5.19,4.46a59.75,59.75,0,0,1-6.09,4.28,17,17,0,0,1-9,2.83H58.45a15,15,0,0,1-11.28-5.18,28.52,28.52,0,0,1-5-7.84,63.61,63.61,0,0,1-2.78-7.84c-.72-2.41-1.26-4.52-1.69-6.15a3.1,3.1,0,0,1-.12-.66l-15-85.68a9.37,9.37,0,0,1,2-7.42,9.1,9.1,0,0,1,6.93-3.2H73.28a9.06,9.06,0,0,1,8.92,7.6l8.14,50.08a1.48,1.48,0,0,0,2.54.77l51.67-55.55a8.9,8.9,0,0,1,6.63-2.9H343.11Z"/><path class="cls-2" d="M342.92,150.93H297a10.51,10.51,0,0,1-8.74-4.71,10.38,10.38,0,0,1-.84-9.88L315.31,72.2l-26.46-.14L257,144.68a10.48,10.48,0,0,1-9.57,6.25H201.29a10.39,10.39,0,0,1-9.52-14.66L219.86,72.2l-39.32-.14-57.46,63.05a40.79,40.79,0,0,1-3.9,3.89c-1.59,1.47-3.36,3-5.24,4.51a61.83,61.83,0,0,1-6.24,4.39,18.27,18.27,0,0,1-9.7,3H58.45a16.31,16.31,0,0,1-12.3-5.64,29.88,29.88,0,0,1-5.25-8.21,64,64,0,0,1-2.83-8c-.73-2.41-1.27-4.54-1.7-6.19a3.74,3.74,0,0,1-.17-1l-15-85.45a10.75,10.75,0,0,1,2.28-8.53,10.5,10.5,0,0,1,8-3.69H73.28A10.39,10.39,0,0,1,83.56,33L91.7,83l51.84-55.5a10.27,10.27,0,0,1,7.64-3.33h302c6.88,0,12.81,1.62,17.65,4.8a35,35,0,0,1,10.6,10.93,42.52,42.52,0,0,1,5.05,12.72A56,56,0,0,1,487.75,64a36.87,36.87,0,0,1-6.63,21.28A58.25,58.25,0,0,1,466.3,100a70.08,70.08,0,0,1-19.14,9.24A66.39,66.39,0,0,1,427,112.58H366.56l-14.12,32.1A10.43,10.43,0,0,1,342.92,150.93ZM288.85,69.3h26.38a2.85,2.85,0,0,1,2.6,4l-27.91,64.13A7.69,7.69,0,0,0,297,148.18h45.94a7.77,7.77,0,0,0,7-4.62l14-32a2.86,2.86,0,0,1,2.62-1.7H427a63.31,63.31,0,0,0,19.35-3.2,67.37,67.37,0,0,0,18.4-8.86,55.46,55.46,0,0,0,14.11-14.06A34.08,34.08,0,0,0,485,64a53.05,53.05,0,0,0-1.24-10.75A39.4,39.4,0,0,0,479,41.37a32.19,32.19,0,0,0-9.77-10.06c-4.36-2.88-9.79-4.35-16.12-4.35h-302a7.56,7.56,0,0,0-5.61,2.44L93.89,85a2.89,2.89,0,0,1-2.92.79,2.85,2.85,0,0,1-2-2.27L80.84,33.4A7.64,7.64,0,0,0,73.28,27H31.49a7.72,7.72,0,0,0-5.88,2.71A8,8,0,0,0,23.93,36l15,85.66a2.13,2.13,0,0,0,.1.54c.41,1.63,1,3.72,1.67,6.12A61.67,61.67,0,0,0,43.43,136a26.73,26.73,0,0,0,4.76,7.46,13.63,13.63,0,0,0,10.26,4.75H98a15.6,15.6,0,0,0,8.26-2.63,58.8,58.8,0,0,0,6-4.19c1.83-1.48,3.56-3,5.1-4.4a37,37,0,0,0,3.65-3.62l57.46-63.1a2.84,2.84,0,0,1,2.11-.94h39.23a2.86,2.86,0,0,1,2.39,1.3,2.9,2.9,0,0,1,.23,2.71l-28.1,64.07a7.65,7.65,0,0,0,7,10.8h46.13a7.71,7.71,0,0,0,7.05-4.62L286.23,71A2.87,2.87,0,0,1,288.85,69.3Z"/><path class="cls-3" d="M84.83,105.93l66.32-71.31h49.34L115.4,128.1a36.28,36.28,0,0,1-3.2,3.2c-1.47,1.33-3.06,2.7-4.79,4.09a44.46,44.46,0,0,1-5.1,3.6,8.71,8.71,0,0,1-4.29,1.5H58.47a6.06,6.06,0,0,1-4.6-2.2,19.68,19.68,0,0,1-3.39-5.39,55.17,55.17,0,0,1-2.4-6.69q-1-3.49-1.6-5.9l-15-85.69H73.25Z"/><path class="cls-3" d="M201.29,140.49l34.55-78.9H190.5v-.2q.19-.8,3.5-4.4t7.79-8c3-2.93,6.05-5.75,9.18-8.49a51.37,51.37,0,0,1,7.89-5.89H338.92a50.35,50.35,0,0,1-5.5,7.29c-2.59,3-5.4,6-8.39,8.89a94.13,94.13,0,0,1-8.69,7.59c-2.79,2.13-4.86,3.2-6.19,3.2H282l-34.56,78.9Z"/><path class="cls-3" d="M297,140.49,343.1,34.62H453.17a21.19,21.19,0,0,1,11.88,3.1,23.45,23.45,0,0,1,7.39,7.59,31.47,31.47,0,0,1,3.8,9.58A43.8,43.8,0,0,1,477.33,64a26.62,26.62,0,0,1-4.79,15.39,47,47,0,0,1-12.18,12.08,60.36,60.36,0,0,1-16.28,7.89,56.71,56.71,0,0,1-17.08,2.8H359.69l-16.78,38.35Zm80.3-78.7L364.08,92.15l23-17h38.36q.18,0,1-.9c.53-.6,1.13-1.3,1.8-2.09s1.3-1.57,1.9-2.31a6.28,6.28,0,0,0,1.09-1.69l.4-1a2.62,2.62,0,0,1-.4-1,28.77,28.77,0,0,0-2.59-2.7c-1.2-1.13-1.93-1.69-2.2-1.69Z"/><path class="cls-2" d="M190.87,160.11l-.18.18-.19.56-.37.75-.56.93a32.47,32.47,0,0,1-21.65,15.12l-.37,4.1q-1.68,15.87-4.67,22.58-4.49,11-14.37,12.14A12.61,12.61,0,0,1,134,206a26.4,26.4,0,0,1,.56-14.93A28,28,0,0,1,144.78,178c1.24-.86,3.17-2.05,5.78-3.54s4-2.06,4.48-2.06.93-1.8.93-5.41a90,90,0,0,0-.74-11.57c-.5-4.1-1-6.41-1.49-6.9s-2.3.81-5.42,3.92q-12.31,12.69-17.54,40.3-.93,5.24-1.86,16.05-.75,6.16-1.31,7.28A7,7,0,0,1,126.3,218c-.62.37-1,.43-1.3.19a.46.46,0,0,0-.75,0l-.37.18h-.37a5,5,0,0,1-3.36,0l-1.31-.56a1.15,1.15,0,0,0-.93,0q-13.26-11.57-16-41.24a141,141,0,0,1,3-46.28,77.76,77.76,0,0,1,7.65-20.15q6-10.83,14.92-15.87A18.56,18.56,0,0,1,138.06,92a20.29,20.29,0,0,1,10.45,3.73q8.6,6.91,3,21.28-5.42,12.51-16.61,25.57-2.05,2.61-6,6.71a58.78,58.78,0,0,1-5.41,5.23q-.39,8.58-.38,13.06-.18,7.27.19,13.06a16.29,16.29,0,0,1,.37-1.68l.38-1.3.56-1.68a75,75,0,0,1,11.75-25q7.65-10.07,15.3-11,8-.73,12.13,5.79,3.93,5.41,4.67,15.3.18,2.43.18,8,11-3.34,14.56-11.94,1.68-3.92,5.41-2.24C191.12,155.75,191.87,157.5,190.87,160.11ZM113.8,119.24l.75-1.31.56-1.49,1.68-3.36q4.29-9.51,6.9-11.94,1.5-1.5-4.66,9.14l-2.24,4.29a34.61,34.61,0,0,0-2.24,3.74,41.15,41.15,0,0,0-2,3.92A23.25,23.25,0,0,0,113.8,119.24Zm18.29-10.82a86.07,86.07,0,0,0-7.46,21.64,33.86,33.86,0,0,0-.56,4.48,85.82,85.82,0,0,0-.75,9.33q2.24-2.43,5.22-6.34c2-2.49,3.49-4.48,4.48-6l.75-1.12.93-1.49c.87-1.25,1.68-2.49,2.43-3.74q3-5,5-9.33,5.4-12.69.18-17.17Q138.26,95.54,132.09,108.42Zm13.25,7.27q-6.9,14.19-21.46,31.92,17-19.61,21.27-30.61a16.35,16.35,0,0,0,.93-2.24,5.2,5.2,0,0,0,.38-1.12Zm4.1-1.49c0-.37-.37.31-1.12,2s-2.42,4.61-5,9-4.55,7.47-5.79,9.33c-.75,1-1.55,2.12-2.43,3.36a25.81,25.81,0,0,1-2.61,3.17c-1.49,1.87-1.93,2.49-1.3,1.87a60.28,60.28,0,0,0,4.29-5.22c2.11-2.62,3.67-4.67,4.66-6.16a68.48,68.48,0,0,0,8-13.81C148.88,115.76,149.32,114.57,149.44,114.2Zm5.41,68.67c-.24.13-1.11.82-2.61,2.06s-2.55,2.36-3.17,3a20.45,20.45,0,0,0-5.22,13.44,31.59,31.59,0,0,0,.37,4.85c.25,1.87.5,2.8.74,2.8s.88-.43,1.87-1.31l2.24-2.24q3.74-5.2,5.78-21.46Z"/><path class="cls-1" d="M122,224.13a12.5,12.5,0,0,1-3.32-.48l-.92-.36a5.63,5.63,0,0,1-3.5-1.36c-10-8.76-15.88-23.44-17.91-44.88a147.39,147.39,0,0,1,3.12-48.11,83.61,83.61,0,0,1,8.21-21.56c4.43-8,10.17-14.1,17-17.95a24,24,0,0,1,13.67-2.94,25.9,25.9,0,0,1,13.4,4.8c5.53,4.45,10.68,12.72,4.85,27.71a96.18,96.18,0,0,1-9.13,16.25,18.92,18.92,0,0,1,3.5-.77c7.65-.73,13.61,2.18,17.47,8.32,3,4.1,4.89,10.12,5.48,17.62a13,13,0,0,0,4.17-5.4,9.69,9.69,0,0,1,5.34-5.58,9.4,9.4,0,0,1,7.43.41,8.77,8.77,0,0,1,5.13,4.59,9.6,9.6,0,0,1,0,7.63,5.5,5.5,0,0,1-.47.94l-.13.32c-.06.12-.51,1-.58,1.11a41.22,41.22,0,0,1-5.16,7.07A36.69,36.69,0,0,1,173.06,182l0,.24c-1.2,11.32-2.87,19.25-5.12,24.31-4.66,11.45-12.79,14.69-18.79,15.37a17.89,17.89,0,0,1-13.38-3.26,16.09,16.09,0,0,1-2.49-2.16,9.66,9.66,0,0,1-.71,2,12.61,12.61,0,0,1-2.37,3.34,5.6,5.6,0,0,1-1,.79,7.13,7.13,0,0,1-4.49,1.09h0A9.37,9.37,0,0,1,122,224.13Zm6-10.59a5.24,5.24,0,0,1,.89.71A4.48,4.48,0,0,0,128,213.54Zm-7.72-1.08.36.11,1.27.53a5.44,5.44,0,0,1,.86-.37c.22-1.07.43-2.6.67-4.58.62-7.28,1.25-12.69,1.9-16.36.41-2.14.85-4.23,1.32-6.25a6,6,0,0,1-3.21,1,6.11,6.11,0,0,1-5.64-5.57q-.41-6-.2-13.56c0-2.9.12-7.33.38-13.16a5.54,5.54,0,0,1,1.4-3.44,5.54,5.54,0,0,1-.93-4.33,5.52,5.52,0,0,1-.66-2.82,93.11,93.11,0,0,1,.8-9.93,35.43,35.43,0,0,1,.61-4.78,88.2,88.2,0,0,1,5.22-17L123.8,113l-2.12,4.08a40.86,40.86,0,0,0-2.19,3.64c-.65,1.16-1.11,2-1.44,2.63a7.86,7.86,0,0,1-1.57,2.65,5.48,5.48,0,0,1-5.23,1.55c-.37,1.29-.72,2.6-1,3.95a136.52,136.52,0,0,0-2.85,44.5C109,193.25,113.33,205.5,120.29,212.46Zm36.51-34.74a4.49,4.49,0,0,1,.91.44,5.52,5.52,0,0,1,2.66,4.71V184c-1.54,12.54-3.65,20.12-6.68,24.48a16.3,16.3,0,0,0,4.09-6.21c1.26-2.87,3-8.7,4.28-21.09l.37-4a5.52,5.52,0,0,1,2.44-4.08,5.53,5.53,0,0,1-1.72-4c0-3.54-.05-6.08-.17-7.62-.37-4.92-1.38-8.79-3-11.52.26,1.28.49,2.87.73,4.85a96.38,96.38,0,0,1,.79,12.24C161.49,170,161.49,176.44,156.8,177.72Zm-16,12.77a20.33,20.33,0,0,0-1.1,2.48,19.79,19.79,0,0,0-.93,4.26A26.58,26.58,0,0,1,140.8,190.49Zm9.26-31.69a55.49,55.49,0,0,0-8.15,14.51c1.4-1,3.35-2.15,5.92-3.62,1-.56,1.87-1,2.61-1.38,0-.36,0-.79,0-1.3C150.46,164.29,150.33,161.54,150.06,158.8Zm37.79,1.51,2.65.54-2.4-1.08C188,160,187.94,160.13,187.85,160.31Zm-.95-.19h0a7.61,7.61,0,0,1,.85-.5l-1.85-.84A2.43,2.43,0,0,0,186.9,160.12Zm4,0h0ZM139.3,106.57c-.63,1.05-1.37,2.43-2.23,4.23,0,0,0,0,0,0a85.76,85.76,0,0,0-4.82,11.83l.18-.3c1.88-3.19,3.49-6.15,4.8-8.89A27.83,27.83,0,0,0,139.3,106.57Zm-7.21,1.85h0Zm-2.6-9a4.44,4.44,0,0,1,0,2,36.26,36.26,0,0,1,2-3.06,10.71,10.71,0,0,0-1.32.64Z"/><path class="cls-2" d="M268.69,159.36l-2.24,7.28q-1.12,3.92-2.05,7.46-1.31,4.67-2.43,9-9.71,37.51-31.91,25.57-4.09-2.25-6.16-8.4Q222,195.19,220,181l-.94,2.42-.93,2.43L217,188.1a15,15,0,0,1-3.92,4.48c-1.86,1.37-4.54,2.18-8,2.42a20.6,20.6,0,0,1-4.85-.37,14.73,14.73,0,0,1-6.35-3.73q-7.1-6.9-5.78-25.57,1.11-18.84,9.33-29.67,10.64-14,26.12-15.49,8.58-1.11,14.93,1.31a13.06,13.06,0,0,1,5.6,3.17c.5.38.87.44,1.12.19s.87,0,1.86.75a6.53,6.53,0,0,1,1.87,2.42,14.71,14.71,0,0,1,1.31,8.59,69.56,69.56,0,0,1-1.5,10.63q-.56,3.18-1.49,7.65l-1.68,8.4q-4.85,22.58-4.85,27.43-.93,7.47.75,9.33.93,1.32,3-.56l1.68-1.49c.5-.62.93-1.18,1.31-1.68a109,109,0,0,0,6.9-15.86c1.62-5,3.17-10.27,4.67-15.86q.75-2.81,1.3-5a4.35,4.35,0,0,0,.38-1.5l.18-.55c.63-2.62,2.24-3.61,4.85-3S269.44,156.63,268.69,159.36Zm-69.6-12.31q-3.56,5.77-3.92,15.11c-.13,2.12-.07,3.11.18,3a3,3,0,0,0,.38-1.31,43.1,43.1,0,0,1,1.68-7.65,76.36,76.36,0,0,1,2.8-9.52Q202.81,140.32,199.09,147.05Zm6.53,6.15,1.49-4.48c.49-1.61.87-2.92,1.12-3.91-1.25,0-2.61,2.61-4.11,7.83-.5,2-.93,4-1.3,6a24.5,24.5,0,0,0-.56,3.74c-.26,3.61.06,3.54.93-.19A73.07,73.07,0,0,1,205.62,153.2Zm10.45,17.73,1.49-3.55,1.49-3.35c1.24-2.62,2.18-4.6,2.8-6a25.53,25.53,0,0,0,2.43-6.15l.74-3.36.75-3.17q1.68-9,4.11-13.25c.12-.25-.07-.38-.56-.38a6,6,0,0,0-1.87.75,29,29,0,0,0-11.76,12.32q-4.66,8.38-6.9,21.46a65.6,65.6,0,0,0-.37,8.58c0,4.23.06,6.79.18,7.65l.19.93,1.49-1.68C211.52,180.14,213.46,176.53,216.07,170.93Zm21.27-8q-2.06,14.18-1.87,18.28c0,.88.07,1.06.19.56a252.51,252.51,0,0,1,6-35.08c.25-1.62.56-3.17.93-4.66s.63-2.8.75-3.55a10,10,0,0,0,.19-2.05v-.93c-.12-.13-.44.24-.94,1.12a14,14,0,0,0-1.11,3.17Q239.4,148.91,237.34,162.91Z"/><path class="cls-1" d="M240.06,217a26.7,26.7,0,0,1-12.61-3.56c-4-2.19-7-6-8.78-11.5a45.43,45.43,0,0,1-1.56-5.56c-.22.18-.44.36-.67.53-2.84,2.09-6.4,3.23-11,3.55a19,19,0,0,1-15.5-5.71c-5.95-5.78-8.37-15.57-7.37-29.85.79-13.54,4.31-24.54,10.43-32.61,8-10.56,18.11-16.5,30-17.65a36,36,0,0,1,17.43,1.64,20.58,20.58,0,0,1,5.93,3,9.09,9.09,0,0,1,4,1.86,12.36,12.36,0,0,1,3.63,4.66,19.74,19.74,0,0,1,1.72,11.36c0,.82-.13,3.57-1.56,11.06-.37,2.09-.88,4.69-1.51,7.74L251,164.36c-2.08,9.65-3.26,15.85-3.93,19.83.72-1.78,1.42-3.64,2.09-5.55,1.55-4.78,3.08-10,4.55-15.48l1.27-4.95a6.78,6.78,0,0,1,.5-1.89c1.38-5.64,6-8.47,11.54-7.17a9,9,0,0,1,6.18,4,9.28,9.28,0,0,1,.85,7.67.84.84,0,0,1-.05.17l-2.24,7.28c-.7,2.47-1.37,4.92-2,7.24-.88,3.17-1.68,6.13-2.42,9-4.41,17-10.78,27.15-19.48,30.95A19.23,19.23,0,0,1,240.06,217ZM220,175.5q.3,0,.6,0a5.5,5.5,0,0,1,4.83,4.69c1.63,11.26,2.88,16.05,3.63,18.1,1,2.89,2.17,4.67,3.63,5.47,3.19,1.71,6,2.45,8.36,2.15a8.4,8.4,0,0,1-4.11-2.7c-2-2.13-2.6-6.23-1.72-13.22a20.27,20.27,0,0,1,.16-2.49,4.36,4.36,0,0,1-.51,0c-2.77-.34-4.92-3.52-4.92-6.31-.09-1.75,0-5.92,1.93-19.07h0c1.38-9.45,2.79-17.38,4.18-23.55a19.21,19.21,0,0,1,1.56-4.42c.78-1.37,2.06-3.62,4.81-4.11a7.6,7.6,0,0,1-1.72-1,8.8,8.8,0,0,0-4-2.33,25.5,25.5,0,0,0-12.48-1.08c-8.68.85-15.76,5-21.8,12.54a6.07,6.07,0,0,1,1.21.46,5.87,5.87,0,0,1,1.8,1.27,6.23,6.23,0,0,1,6.3.66,33.76,33.76,0,0,1,13.09-12.93,11.1,11.1,0,0,1,3.36-1.29,6.59,6.59,0,0,1,6.35,2.62,5.94,5.94,0,0,1,.3,5.54c-1.07,1.93-2.41,5.22-3.66,11.88l-1.53,6.71a31.7,31.7,0,0,1-3,7.7c-.41.94-1.35,3-2.61,5.61l-2.88,6.67a1.63,1.63,0,0,1-.09.19C220.69,174.06,220.34,174.8,220,175.5Zm-18.23,13.85a25.77,25.77,0,0,0,3.28.14,13.17,13.17,0,0,0,3.13-.58,5.77,5.77,0,0,1-.83-.15,5.54,5.54,0,0,1-4-4.23l-.24-1.25c-.13-1-.24-3.77-.24-8.43,0-1.62,0-3.06.06-4.33a8.51,8.51,0,0,1-1.49-.06,5.6,5.6,0,0,1-2.63-1.05,5.28,5.28,0,0,1-1,.67,5.78,5.78,0,0,1-4.43.25c-.07,8.1,1.4,13.79,4.31,16.62a9.34,9.34,0,0,0,4.09,2.4Zm14.29-18.42h0Zm52.62-11.57-5.27-1.67v.05l5.27,1.62-2.44-.67Zm-5.27-1.44,2.81.77Zm-44.57-7.07c-.58,1.32-1.12,2.71-1.62,4.18A21.27,21.27,0,0,0,218.85,150.85Zm30.21-22.09Zm0,0h0Zm-7.79-7.81Zm0,0Z"/><path class="cls-2" d="M327.11,158.8c0,.12-.19,1-.56,2.61a20.39,20.39,0,0,1-.56,2.8c-.26,1.12-.52,2.31-.75,3.55-.63,3-1.25,6-1.88,9-.86,3.61-1.81,7.09-2.8,10.44a134.81,134.81,0,0,1-7.45,21.28q-5.43,11.56-11,14.74a10.46,10.46,0,0,1-5.23,1.5q-5.24,0-11-4.48-15.32-11.58-18.29-48.71l-.19-3v-3.17q-.37-4.85-.37-8a181,181,0,0,1,.56-19q2.24-25.57,14-42.56,3-3,9.33-2.61,9.14,1.32,13.25,12A33.73,33.73,0,0,1,306,124.28q-2.43,14.17-17,37.13l-1.86,2.8q.18,8,.56,16.42c.12,5.36.3,9.09.56,11.2a59,59,0,0,0,3,14c.62,1.74,1.43,3.8,2.43,6.16s1.92,3.73,2.43,4.1,1.17.5,2.05,0a12.74,12.74,0,0,0,2.24-1.86,37.75,37.75,0,0,0,3.17-4.86q4.65-8.4,9.13-24.44,2.43-8.77,4.68-18.85c.49-2.24.92-4.29,1.31-6.16a13,13,0,0,0,.17-1.68l.2-.74c.49-2.74,2-3.86,4.67-3.36S327.61,156.19,327.11,158.8Zm-40.69-5.6,1.12-2A83.29,83.29,0,0,0,298,127.64a43.75,43.75,0,0,0,1.87-12.32A22.86,22.86,0,0,0,296.31,103l-.93-1.3a2.21,2.21,0,0,0-.75-.75c-.63-.37-1.25,0-1.86,1.12q-4.31,7.84-5.6,25.57-.75,11.56-.75,17.73Zm.75,3.55,1.68-2.8a107.63,107.63,0,0,0,9.7-19.41c.38-1,.68-1.93.94-2.8l-1.68,3.18A140.33,140.33,0,0,1,290,150.78a38.6,38.6,0,0,0-2.8,5.22Zm0,3.73q2-2.8,8-13.25l.56-1.12.56-1.12,1.12-2.42q1.49-3,2.24-4.67,1.13-2.79,1.87-5a10,10,0,0,0-.94,2.06,178.18,178.18,0,0,1-12.31,23l-.56,1.12a6.68,6.68,0,0,0-.56.93Z"/><path class="cls-1" d="M296.87,230.19c-4.72,0-9.56-1.9-14.39-5.64-11.57-8.75-18.27-26-20.4-52.62l-.21-6.6c-.25-3-.37-5.79-.37-8a185.82,185.82,0,0,1,.58-19.51c1.57-17.94,6.6-33.15,14.95-45.21,3.79-3.91,8.34-5.32,14.19-5,6.09.85,13.72,4.18,18.07,15.46a39.26,39.26,0,0,1,2.15,22.21c-1.75,10.21-7.56,23-17.75,39.08l-1,1.46q.18,7.14.51,14.57c.13,5.21.29,8.77.53,10.79A54,54,0,0,0,296.47,204c.42,1.17.93,2.51,1.54,4,.25-.41.51-.86.78-1.33,2.89-5.21,5.79-13,8.62-23.22,1.59-5.75,3.14-11.94,4.6-18.56l1.3-6.09a10.61,10.61,0,0,1,.24-2c.75-3.93,2.58-5.85,4-6.82a9.31,9.31,0,0,1,7.23-1.31,9.59,9.59,0,0,1,6.45,3.88,9.23,9.23,0,0,1,1.36,6.94c-.07.53-.25,1.29-.65,3.09a21.58,21.58,0,0,1-.62,3c-.19.84-.44,2-.66,3.12l-1.89,9.06c-.92,3.86-1.89,7.43-2.91,10.88a140.17,140.17,0,0,1-7.76,22.07c-4.14,8.84-8.49,14.47-13.27,17.18A16,16,0,0,1,296.87,230.19ZM288.43,98.6a4.91,4.91,0,0,0-3,1c-6.61,9.7-11,23.12-12.4,39.13a175.91,175.91,0,0,0-.53,18.45c0,2.1.11,4.63.35,7.69l.2,6.25c1.84,22.9,7.26,38,16.11,44.65l.38.3c-.26-.52-.55-1.11-.85-1.76-1.14-2.68-2-4.83-2.64-6.66a64.76,64.76,0,0,1-3.28-15.31c-.25-2.1-.46-6-.59-11.61s-.43-11-.56-16.42a5.58,5.58,0,0,1,.33-2,5.57,5.57,0,0,1-.33-1.87v-.56a5.67,5.67,0,0,1,.25-1.64,4.81,4.81,0,0,1-.25-1.53V156a5.45,5.45,0,0,1-.75-2.77v-7.83q0-6.28.76-18.09c.94-12.78,3-21.87,6.27-27.86A9.41,9.41,0,0,1,288.43,98.6Zm36.11,59.72,2.57.48-2.56-.54A.18.18,0,0,1,324.54,158.32Zm-.14,0,.13,0a.17.17,0,0,0,0-.05l-2.84-.61v.13l2.69.46Zm-2.74-.43v0Zm-27.33-42.94a102.29,102.29,0,0,0-1.46,10.56,38.24,38.24,0,0,0,1.47-10.15C294.34,115.18,294.33,115,294.33,114.91Z"/><path class="cls-2" d="M404.36,159.36l-2.24,7.28c-.74,2.61-1.43,5.1-2.05,7.46q-1.31,4.67-2.43,9-9.7,37.51-31.9,25.57c-2.75-1.5-4.79-4.3-6.16-8.4q-1.87-5-3.92-19.22l-.94,2.42-.92,2.43-1.12,2.24a15.15,15.15,0,0,1-3.92,4.48c-1.88,1.37-4.55,2.18-8,2.42a20.61,20.61,0,0,1-4.84-.37,14.78,14.78,0,0,1-6.35-3.73q-7.08-6.9-5.79-25.57,1.13-18.84,9.34-29.67,10.62-14,26.12-15.49c5.72-.74,10.71-.31,14.93,1.31a13.06,13.06,0,0,1,5.6,3.17c.49.38.87.44,1.12.19s.87,0,1.87.75a6.71,6.71,0,0,1,1.86,2.42,14.71,14.71,0,0,1,1.31,8.59,70.45,70.45,0,0,1-1.49,10.63c-.38,2.12-.87,4.67-1.5,7.65l-1.68,8.4q-4.86,22.58-4.85,27.43c-.63,5-.37,8.09.75,9.33.61.88,1.62.69,3-.56l1.68-1.49c.5-.62.94-1.18,1.31-1.68A109,109,0,0,0,390,180.45c1.61-5,3.16-10.27,4.66-15.86q.75-2.81,1.3-5a4.35,4.35,0,0,0,.38-1.5l.18-.55c.63-2.62,2.24-3.61,4.86-3S405.11,156.63,404.36,159.36Zm-69.6-12.31q-3.56,5.77-3.92,15.11c-.13,2.12-.07,3.11.18,3a3,3,0,0,0,.38-1.31,43.1,43.1,0,0,1,1.68-7.65,76.36,76.36,0,0,1,2.8-9.52Q338.48,140.32,334.76,147.05Zm6.52,6.15,1.5-4.48c.49-1.61.87-2.92,1.12-3.91q-1.87,0-4.1,7.83c-.51,2-.94,4-1.32,6a25.91,25.91,0,0,0-.56,3.74q-.36,5.42.94-.19A74.52,74.52,0,0,1,341.28,153.2Zm10.46,17.73,1.5-3.55,1.48-3.35c1.25-2.62,2.18-4.6,2.8-6a25.53,25.53,0,0,0,2.42-6.15l.76-3.36.74-3.17q1.68-9,4.1-13.25c.13-.25-.06-.38-.56-.38a6.16,6.16,0,0,0-1.86.75,28.84,28.84,0,0,0-11.76,12.32q-4.67,8.38-6.9,21.46a65.08,65.08,0,0,0-.38,8.58c0,4.23.07,6.79.2,7.65l.18.93,1.5-1.68Q347.81,179.33,351.74,170.93Zm21.28-8q-2.07,14.18-1.88,18.28c0,.88.07,1.06.2.56a252.47,252.47,0,0,1,6-35.08c.25-1.62.56-3.17.94-4.66s.61-2.8.74-3.55a10.75,10.75,0,0,0,.19-2.05v-.93c-.12-.13-.43.24-.93,1.12a13.12,13.12,0,0,0-1.12,3.17Q375.05,148.91,373,162.91Z"/><path class="cls-1" d="M375.73,217a26.66,26.66,0,0,1-12.6-3.56c-4-2.18-7-6-8.78-11.5a44.68,44.68,0,0,1-1.57-5.56l-.66.53c-2.87,2.09-6.43,3.23-11,3.55a22,22,0,0,1-6.75-.56,20.34,20.34,0,0,1-8.74-5.15c-5.94-5.78-8.38-15.56-7.39-29.84.82-13.57,4.33-24.57,10.44-32.62,8-10.56,18.11-16.5,30-17.65a35.83,35.83,0,0,1,17.43,1.65,20.51,20.51,0,0,1,5.94,3,9.36,9.36,0,0,1,4,1.85,12.75,12.75,0,0,1,3.62,4.64,19.82,19.82,0,0,1,1.73,11.4c0,.81-.13,3.57-1.55,11-.38,2.1-.88,4.7-1.52,7.75l-1.67,8.35c-2.09,9.67-3.28,15.88-3.94,19.86.72-1.79,1.43-3.66,2.1-5.58,1.55-4.78,3.08-10,4.55-15.48l1.28-5a6.61,6.61,0,0,1,.49-1.88c1.38-5.64,6-8.5,11.54-7.17a9,9,0,0,1,6.18,4,9.36,9.36,0,0,1,.85,7.67l0,.18-2.24,7.28c-.7,2.47-1.39,4.93-2,7.25-.89,3.16-1.68,6.11-2.42,8.94-4.41,17-10.78,27.16-19.48,31A19.27,19.27,0,0,1,375.73,217ZM355.67,175.5c.2,0,.41,0,.61,0a5.5,5.5,0,0,1,4.83,4.69c1.63,11.26,2.88,16.05,3.64,18.09,1,2.9,2.16,4.68,3.62,5.47,3.19,1.72,6,2.43,8.36,2.16a8.3,8.3,0,0,1-4.12-2.73c-2-2.11-2.59-6.2-1.71-13.19a16.78,16.78,0,0,1,.16-2.49,4.89,4.89,0,0,1-.54,0c-2.75-.35-4.89-3.53-4.89-6.31-.13-2.93.5-9.25,1.93-19.08h0c1.42-9.7,2.79-17.41,4.18-23.56a19.13,19.13,0,0,1,1.58-4.45c.75-1.32,2-3.58,4.79-4.07a7.39,7.39,0,0,1-1.72-1,8.67,8.67,0,0,0-4-2.33,25.41,25.41,0,0,0-12.47-1.08c-8.68.85-15.77,5-21.8,12.54a6.31,6.31,0,0,1,1.21.46,6,6,0,0,1,1.8,1.27,6.23,6.23,0,0,1,6.3.66,33.83,33.83,0,0,1,13.09-12.93,11.14,11.14,0,0,1,3.36-1.29,6.6,6.6,0,0,1,6.41,2.7,6,6,0,0,1,.15,5.63c-1,1.75-2.32,5.06-3.57,11.71l-1.54,6.72a31.22,31.22,0,0,1-3,7.68c-.41.95-1.34,3-2.61,5.62l-2.88,6.67-.08.2Zm-18.21,13.85a25.18,25.18,0,0,0,3.26.14,12.88,12.88,0,0,0,3.14-.58,4.9,4.9,0,0,1-.85-.16,5.51,5.51,0,0,1-4-4.26c0-.08-.21-1.09-.23-1.18-.14-.95-.25-3.77-.25-8.46,0-1.62,0-3.06.06-4.33a8.48,8.48,0,0,1-1.49-.06,5.7,5.7,0,0,1-2.63-1,5.74,5.74,0,0,1-1,.66,5.65,5.65,0,0,1-4.43.24c-.06,8.11,1.41,13.8,4.32,16.63a9.32,9.32,0,0,0,4.09,2.4Zm14.28-18.42h0Zm52.62-11.57h0Zm-49.85-8.47c-.57,1.29-1.11,2.67-1.6,4.13A22.6,22.6,0,0,0,354.51,150.89Zm22.9-30.35a5.18,5.18,0,0,0-.51.44A5.08,5.08,0,0,1,377.41,120.54Z"/><path class="cls-2" d="M190.87,160.11l-.18.18-.19.56-.37.75-.56.93a32.47,32.47,0,0,1-21.65,15.12l-.37,4.1q-1.68,15.87-4.67,22.58-4.49,11-14.37,12.14A12.61,12.61,0,0,1,134,206a26.4,26.4,0,0,1,.56-14.93A28,28,0,0,1,144.78,178c1.24-.86,3.17-2.05,5.78-3.54s4-2.06,4.48-2.06.93-1.8.93-5.41a90,90,0,0,0-.74-11.57c-.5-4.1-1-6.41-1.49-6.9s-2.3.81-5.42,3.92q-12.31,12.69-17.54,40.3-.93,5.24-1.86,16.05-.75,6.16-1.31,7.28A7,7,0,0,1,126.3,218c-.62.37-1,.43-1.3.19a.46.46,0,0,0-.75,0l-.37.18h-.37a5,5,0,0,1-3.36,0l-1.31-.56a1.15,1.15,0,0,0-.93,0q-13.26-11.57-16-41.24a141,141,0,0,1,3-46.28,77.76,77.76,0,0,1,7.65-20.15q6-10.83,14.92-15.87A18.56,18.56,0,0,1,138.06,92a20.29,20.29,0,0,1,10.45,3.73q8.6,6.91,3,21.28-5.42,12.51-16.61,25.57-2.05,2.61-6,6.71a58.78,58.78,0,0,1-5.41,5.23q-.39,8.58-.38,13.06-.18,7.27.19,13.06a16.29,16.29,0,0,1,.37-1.68l.38-1.3.56-1.68a75,75,0,0,1,11.75-25q7.65-10.07,15.3-11,8-.73,12.13,5.79,3.93,5.41,4.67,15.3.18,2.43.18,8,11-3.34,14.56-11.94,1.68-3.92,5.41-2.24C191.12,155.75,191.87,157.5,190.87,160.11ZM113.8,119.24l.75-1.31.56-1.49,1.68-3.36q4.29-9.51,6.9-11.94,1.5-1.5-4.66,9.14l-2.24,4.29a34.61,34.61,0,0,0-2.24,3.74,41.15,41.15,0,0,0-2,3.92A23.25,23.25,0,0,0,113.8,119.24Zm18.29-10.82a86.07,86.07,0,0,0-7.46,21.64,33.86,33.86,0,0,0-.56,4.48,85.82,85.82,0,0,0-.75,9.33q2.24-2.43,5.22-6.34c2-2.49,3.49-4.48,4.48-6l.75-1.12.93-1.49c.87-1.25,1.68-2.49,2.43-3.74q3-5,5-9.33,5.4-12.69.18-17.17Q138.26,95.54,132.09,108.42Zm13.25,7.27q-6.9,14.19-21.46,31.92,17-19.61,21.27-30.61a16.35,16.35,0,0,0,.93-2.24,5.2,5.2,0,0,0,.38-1.12Zm4.1-1.49c0-.37-.37.31-1.12,2s-2.42,4.61-5,9-4.55,7.47-5.79,9.33c-.75,1-1.55,2.12-2.43,3.36a25.81,25.81,0,0,1-2.61,3.17c-1.49,1.87-1.93,2.49-1.3,1.87a60.28,60.28,0,0,0,4.29-5.22c2.11-2.62,3.67-4.67,4.66-6.16a68.48,68.48,0,0,0,8-13.81C148.88,115.76,149.32,114.57,149.44,114.2Zm5.41,68.67c-.24.13-1.11.82-2.61,2.06s-2.55,2.36-3.17,3a20.45,20.45,0,0,0-5.22,13.44,31.59,31.59,0,0,0,.37,4.85c.25,1.87.5,2.8.74,2.8s.88-.43,1.87-1.31l2.24-2.24q3.74-5.2,5.78-21.46Z"/><path class="cls-2" d="M268.69,159.36l-2.24,7.28q-1.12,3.92-2.05,7.46-1.31,4.67-2.43,9-9.71,37.51-31.91,25.57-4.09-2.25-6.16-8.4Q222,195.19,220,181l-.94,2.42-.93,2.43L217,188.1a15,15,0,0,1-3.92,4.48c-1.86,1.37-4.54,2.18-8,2.42a20.6,20.6,0,0,1-4.85-.37,14.73,14.73,0,0,1-6.35-3.73q-7.1-6.9-5.78-25.57,1.11-18.84,9.33-29.67,10.64-14,26.12-15.49,8.58-1.11,14.93,1.31a13.06,13.06,0,0,1,5.6,3.17c.5.38.87.44,1.12.19s.87,0,1.86.75a6.53,6.53,0,0,1,1.87,2.42,14.71,14.71,0,0,1,1.31,8.59,69.56,69.56,0,0,1-1.5,10.63q-.56,3.18-1.49,7.65l-1.68,8.4q-4.85,22.58-4.85,27.43-.93,7.47.75,9.33.93,1.32,3-.56l1.68-1.49c.5-.62.93-1.18,1.31-1.68a109,109,0,0,0,6.9-15.86c1.62-5,3.17-10.27,4.67-15.86q.75-2.81,1.3-5a4.35,4.35,0,0,0,.38-1.5l.18-.55c.63-2.62,2.24-3.61,4.85-3S269.44,156.63,268.69,159.36Zm-69.6-12.31q-3.56,5.77-3.92,15.11c-.13,2.12-.07,3.11.18,3a3,3,0,0,0,.38-1.31,43.1,43.1,0,0,1,1.68-7.65,76.36,76.36,0,0,1,2.8-9.52Q202.81,140.32,199.09,147.05Zm6.53,6.15,1.49-4.48c.49-1.61.87-2.92,1.12-3.91-1.25,0-2.61,2.61-4.11,7.83-.5,2-.93,4-1.3,6a24.5,24.5,0,0,0-.56,3.74c-.26,3.61.06,3.54.93-.19A73.07,73.07,0,0,1,205.62,153.2Zm10.45,17.73,1.49-3.55,1.49-3.35c1.24-2.62,2.18-4.6,2.8-6a25.53,25.53,0,0,0,2.43-6.15l.74-3.36.75-3.17q1.68-9,4.11-13.25c.12-.25-.07-.38-.56-.38a6,6,0,0,0-1.87.75,29,29,0,0,0-11.76,12.32q-4.66,8.38-6.9,21.46a65.6,65.6,0,0,0-.37,8.58c0,4.23.06,6.79.18,7.65l.19.93,1.49-1.68C211.52,180.14,213.46,176.53,216.07,170.93Zm21.27-8q-2.06,14.18-1.87,18.28c0,.88.07,1.06.19.56a252.51,252.51,0,0,1,6-35.08c.25-1.62.56-3.17.93-4.66s.63-2.8.75-3.55a10,10,0,0,0,.19-2.05v-.93c-.12-.13-.44.24-.94,1.12a14,14,0,0,0-1.11,3.17Q239.4,148.91,237.34,162.91Z"/><path class="cls-2" d="M327.11,158.8c0,.12-.19,1-.56,2.61a20.39,20.39,0,0,1-.56,2.8c-.26,1.12-.52,2.31-.75,3.55-.63,3-1.25,6-1.88,9-.86,3.61-1.81,7.09-2.8,10.44a134.81,134.81,0,0,1-7.45,21.28q-5.43,11.56-11,14.74a10.46,10.46,0,0,1-5.23,1.5q-5.24,0-11-4.48-15.32-11.58-18.29-48.71l-.19-3v-3.17q-.37-4.85-.37-8a181,181,0,0,1,.56-19q2.24-25.57,14-42.56,3-3,9.33-2.61,9.14,1.32,13.25,12A33.73,33.73,0,0,1,306,124.28q-2.43,14.17-17,37.13l-1.86,2.8q.18,8,.56,16.42c.12,5.36.3,9.09.56,11.2a59,59,0,0,0,3,14c.62,1.74,1.43,3.8,2.43,6.16s1.92,3.73,2.43,4.1,1.17.5,2.05,0a12.74,12.74,0,0,0,2.24-1.86,37.75,37.75,0,0,0,3.17-4.86q4.65-8.4,9.13-24.44,2.43-8.77,4.68-18.85c.49-2.24.92-4.29,1.31-6.16a13,13,0,0,0,.17-1.68l.2-.74c.49-2.74,2-3.86,4.67-3.36S327.61,156.19,327.11,158.8Zm-40.69-5.6,1.12-2A83.29,83.29,0,0,0,298,127.64a43.75,43.75,0,0,0,1.87-12.32A22.86,22.86,0,0,0,296.31,103l-.93-1.3a2.21,2.21,0,0,0-.75-.75c-.63-.37-1.25,0-1.86,1.12q-4.31,7.84-5.6,25.57-.75,11.56-.75,17.73Zm.75,3.55,1.68-2.8a107.63,107.63,0,0,0,9.7-19.41c.38-1,.68-1.93.94-2.8l-1.68,3.18A140.33,140.33,0,0,1,290,150.78a38.6,38.6,0,0,0-2.8,5.22Zm0,3.73q2-2.8,8-13.25l.56-1.12.56-1.12,1.12-2.42q1.49-3,2.24-4.67,1.13-2.79,1.87-5a10,10,0,0,0-.94,2.06,178.18,178.18,0,0,1-12.31,23l-.56,1.12a6.68,6.68,0,0,0-.56.93Z"/><path class="cls-2" d="M404.36,159.36l-2.24,7.28c-.74,2.61-1.43,5.1-2.05,7.46q-1.31,4.67-2.43,9-9.7,37.51-31.9,25.57c-2.75-1.5-4.79-4.3-6.16-8.4q-1.87-5-3.92-19.22l-.94,2.42-.92,2.43-1.12,2.24a15.15,15.15,0,0,1-3.92,4.48c-1.88,1.37-4.55,2.18-8,2.42a20.61,20.61,0,0,1-4.84-.37,14.78,14.78,0,0,1-6.35-3.73q-7.08-6.9-5.79-25.57,1.13-18.84,9.34-29.67,10.62-14,26.12-15.49c5.72-.74,10.71-.31,14.93,1.31a13.06,13.06,0,0,1,5.6,3.17c.49.38.87.44,1.12.19s.87,0,1.87.75a6.71,6.71,0,0,1,1.86,2.42,14.71,14.71,0,0,1,1.31,8.59,70.45,70.45,0,0,1-1.49,10.63c-.38,2.12-.87,4.67-1.5,7.65l-1.68,8.4q-4.86,22.58-4.85,27.43c-.63,5-.37,8.09.75,9.33.61.88,1.62.69,3-.56l1.68-1.49c.5-.62.94-1.18,1.31-1.68A109,109,0,0,0,390,180.45c1.61-5,3.16-10.27,4.66-15.86q.75-2.81,1.3-5a4.35,4.35,0,0,0,.38-1.5l.18-.55c.63-2.62,2.24-3.61,4.86-3S405.11,156.63,404.36,159.36Zm-69.6-12.31q-3.56,5.77-3.92,15.11c-.13,2.12-.07,3.11.18,3a3,3,0,0,0,.38-1.31,43.1,43.1,0,0,1,1.68-7.65,76.36,76.36,0,0,1,2.8-9.52Q338.48,140.32,334.76,147.05Zm6.52,6.15,1.5-4.48c.49-1.61.87-2.92,1.12-3.91q-1.87,0-4.1,7.83c-.51,2-.94,4-1.32,6a25.91,25.91,0,0,0-.56,3.74q-.36,5.42.94-.19A74.52,74.52,0,0,1,341.28,153.2Zm10.46,17.73,1.5-3.55,1.48-3.35c1.25-2.62,2.18-4.6,2.8-6a25.53,25.53,0,0,0,2.42-6.15l.76-3.36.74-3.17q1.68-9,4.1-13.25c.13-.25-.06-.38-.56-.38a6.16,6.16,0,0,0-1.86.75,28.84,28.84,0,0,0-11.76,12.32q-4.67,8.38-6.9,21.46a65.08,65.08,0,0,0-.38,8.58c0,4.23.07,6.79.2,7.65l.18.93,1.5-1.68Q347.81,179.33,351.74,170.93Zm21.28-8q-2.07,14.18-1.88,18.28c0,.88.07,1.06.2.56a252.47,252.47,0,0,1,6-35.08c.25-1.62.56-3.17.94-4.66s.61-2.8.74-3.55a10.75,10.75,0,0,0,.19-2.05v-.93c-.12-.13-.43.24-.93,1.12a13.12,13.12,0,0,0-1.12,3.17Q375.05,148.91,373,162.91Z"/></svg>