<svg width="56" height="26" viewBox="0 0 56 26" fill="none" xmlns="http://www.w3.org/2000/svg">
<path fill-rule="evenodd" clip-rule="evenodd" d="M34.75 1.75058C35.7165 0.0765603 37.8571 -0.497003 39.5311 0.469495L53.7158 8.65904C54.3855 9.04567 54.879 9.62017 55.1683 10.2775C55.6898 10.9531 56 11.8001 56 12.7195C56 13.8651 55.5184 14.8983 54.7466 15.6275C54.4742 15.9838 54.1285 16.2934 53.7158 16.5317L39.5311 24.7212C37.8571 25.6877 35.7165 25.1142 34.75 23.4401C33.7835 21.7661 34.3571 19.6255 36.0311 18.659L39.3905 16.7195H4C1.79086 16.7195 0 14.9286 0 12.7195C0 10.5104 1.79086 8.7195 4 8.7195H39.8205L36.0311 6.53167C34.3571 5.56518 33.7835 3.42461 34.75 1.75058Z" fill="#C8C8C8"/>
</svg>
